<svg width="22" height="22" viewBox="0 0 22 22" fill="none" xmlns="http://www.w3.org/2000/svg">
<path d="M1 1.48047L3.37764 1.48047L7 14.4805L18 14.4805M21 4.01308L19 11.4805L6.16407 11.4805L4.08334 4.01308L21 4.01308ZM6.69812 18.8511V18.9371C6.69812 19.4994 6.99031 20.0201 7.46719 20.3077C7.96355 20.6071 8.58189 20.6071 9.07826 20.3077C9.55514 20.0201 9.84732 19.4994 9.84732 18.9371V18.8511C9.84732 18.2888 9.55514 17.7681 9.07826 17.4805C8.58189 17.1811 7.96355 17.1811 7.46719 17.4805C6.99031 17.7681 6.69812 18.2888 6.69812 18.8511ZM14.577 18.8511V18.9371C14.577 19.4994 14.8692 20.0201 15.346 20.3077C15.8424 20.6071 16.4608 20.6071 16.9571 20.3077C17.434 20.0201 17.7262 19.4994 17.7262 18.9371V18.8511C17.7262 18.2888 17.434 17.7681 16.9571 17.4805C16.4608 17.1811 15.8424 17.1811 15.346 17.4805C14.8692 17.7681 14.577 18.2888 14.577 18.8511Z" stroke="white" stroke-width="2" stroke-linecap="round" stroke-linejoin="round"/>
</svg>
