<svg width="20" height="22" viewBox="0 0 20 22" fill="none" xmlns="http://www.w3.org/2000/svg">
<path d="M4.81679 10.4969L3.86663 6.95085C3.19103 4.42948 4.68732 1.83782 7.20869 1.16222C9.73006 0.486622 12.3217 1.98292 12.9973 4.50428L13.7675 7.37876M2 11.1388C2 10.7843 2.28737 10.4969 2.64186 10.4969H16.7627C17.1172 10.4969 17.4045 10.7843 17.4045 11.1388V20.3581C17.4045 20.7126 17.1172 21 16.7627 21H2.64186C2.28737 21 2 20.7126 2 20.3581V11.1388ZM8.65196 16.7988C9.23203 17.3788 10.1725 17.3788 10.7526 16.7988C11.3326 16.2187 11.3326 15.2782 10.7526 14.6981C10.1725 14.1181 9.23203 14.1181 8.65196 14.6981C8.07189 15.2782 8.07189 16.2187 8.65196 16.7988Z" stroke="#223242" stroke-width="2" stroke-linecap="round" stroke-linejoin="round"/>
</svg>
