<svg width="195" height="266" viewBox="0 0 195 266" fill="none" xmlns="http://www.w3.org/2000/svg">
<path d="M161.516 181.073C161.177 181.405 161.056 181.479 160.988 181.587C158.83 184.645 155.868 186.618 152.386 187.834C151.299 188.223 150.149 188.441 149.026 188.676C147.864 188.944 146.716 188.769 145.604 188.448C144.171 188.039 143.577 187.16 143.649 185.667C143.669 185.154 143.717 184.659 143.782 184.136C144.408 178.73 143.535 173.531 141.376 168.558C140.937 167.551 140.432 166.559 139.966 165.536C138.414 162.2 136.081 159.482 133.361 157.085C132.089 155.97 130.619 155.2 128.996 154.765C127.253 154.312 125.505 154.437 123.794 154.923C122.28 155.364 121.23 156.32 120.597 157.781C120.004 159.118 119.749 160.515 119.803 161.956C119.911 164.332 120.44 166.633 121.227 168.852C122.521 172.571 124.298 176.085 125.988 179.62C126.566 180.825 127.126 182.058 127.659 183.274C129.364 187.175 128.982 190.932 126.862 194.558C125.255 197.305 123.1 199.577 120.565 201.499C117.732 203.627 114.576 205.161 111.18 206.149C110.034 206.482 108.88 206.886 107.729 207.197C106.621 207.498 105.476 207.738 104.348 207.951C103.861 208.04 103.327 208.024 102.843 207.928C102.071 207.782 101.729 207.099 101.994 206.346C102.098 206.092 102.249 205.849 102.379 205.611C106.774 198.831 108.26 191.243 108.629 183.312C108.709 181.355 108.424 179.412 107.75 177.583C106.722 174.819 104.822 172.879 101.923 172.115C100.131 171.65 98.3273 171.834 96.6124 172.505C95.3595 172.978 94.1638 173.599 93.0051 174.281C91.2293 175.289 89.9671 176.826 89.1784 178.715C88.7157 179.814 88.3338 180.963 88.0497 182.136C87.1755 185.66 86.6991 189.209 86.7941 192.833C86.8151 194.028 86.8142 195.229 86.7475 196.444C86.4828 200.913 84.2787 204.074 80.2803 206.055C78.3308 207.011 76.2553 207.419 74.1009 207.383C73.0372 207.374 71.9853 207.316 70.9115 207.263C67.6682 207.109 64.5625 207.754 61.598 209.013C60.4428 209.509 59.3668 210.149 58.4929 211.065C58.1926 211.365 57.8502 211.582 57.4287 211.656C57.046 211.698 56.6567 211.51 56.5272 211.148C56.4128 210.851 56.3372 210.522 56.3105 210.205C56.0545 207.587 55.0904 205.201 53.9729 202.85C52.5658 199.943 51.2413 196.993 49.9169 194.044C49.4978 193.125 49.1783 192.137 48.8638 191.171C47.7875 187.795 48.1389 184.506 49.6451 181.321C51.3099 177.823 53.7699 174.972 56.9274 172.746C57.9006 172.061 58.9328 171.431 59.965 170.802C62.2503 169.399 64.1178 167.585 65.5895 165.354C66.7017 163.667 66.9812 161.872 66.418 159.925C66.0851 158.778 65.4098 157.849 64.5793 157.047C63.9847 156.469 63.2077 156.301 62.3884 156.351C60.4547 156.473 58.6488 157.05 57.0835 158.171C53.7709 160.525 50.8659 163.247 48.6616 166.708C46.0742 170.811 44.1255 175.183 43.0969 179.942C42.9785 180.431 42.8871 180.937 42.7687 181.426C42.7146 181.692 42.6385 181.963 42.5624 182.235C42.4053 182.755 42.1622 183.204 41.5772 183.269C41.0141 183.329 40.6333 182.978 40.3252 182.541C40.1601 182.326 40.012 182.083 39.8638 181.84C38.8468 180.227 37.8349 178.637 36.8399 177.02C35.6966 175.159 34.889 173.153 34.2247 171.067C33.1181 167.56 33.618 164.214 35.2776 160.993C36.1842 159.216 37.3874 157.623 38.7354 156.16C39.989 154.787 41.3706 153.569 42.8701 152.462C46.6433 149.702 50.6707 147.345 54.8934 145.336C57.9542 143.893 60.993 142.456 63.9747 140.87C66.8349 139.359 69.5049 137.522 72.1058 135.585C73.6441 134.447 74.9146 133.047 76.121 131.569C76.6796 130.887 77.1302 130.137 77.4191 129.286C78.232 126.699 77.6183 124.532 75.3623 122.951C74.07 122.048 72.6477 121.383 71.1224 120.972C68.6853 120.309 66.2124 120.093 63.7124 120.16C58.1121 120.294 52.8682 121.777 47.8411 124.203C45.4515 125.352 43.2959 126.817 41.2296 128.469C37.4174 131.561 34.2656 135.217 31.3007 139.084C29.9136 140.88 28.5805 142.709 27.4091 144.64C27.0715 145.18 26.7171 145.746 26.2936 146.212C25.6862 146.883 24.9024 146.786 24.4866 145.982C24.2762 145.569 24.1096 145.145 24.0038 144.685C23.3047 141.846 22.6106 139.028 21.9334 136.184C21.2613 133.361 21.228 130.507 21.8438 127.666C22.6999 123.661 24.8702 120.554 28.2569 118.321C29.9975 117.159 31.9064 116.328 33.8675 115.623C37.8993 114.188 42.0521 113.279 46.2484 112.661C50.089 112.1 53.9549 111.65 57.8005 111.112C59.5016 110.882 61.1977 110.631 62.8686 110.269C66.588 109.483 70.2754 108.658 73.9848 107.828C76.7027 107.203 79.2659 106.106 81.7281 104.871C83.8159 103.814 85.6376 102.402 87.2623 100.736C89.0371 98.9205 89.7401 96.6587 89.6021 94.1519C89.509 92.4424 88.7329 91.0747 87.2889 90.1144C86.1465 89.3616 84.9399 88.8314 83.654 88.4579C80.1214 87.4471 76.5243 86.9588 72.8663 86.8077C69.5353 86.6736 66.2059 86.747 62.9031 87.1372C62.4985 87.1841 62.077 87.258 61.6724 87.3049C57.1354 88.0482 52.7564 89.3783 48.5793 91.2851C43.9621 93.3854 39.7321 96.0659 35.7345 99.1546C35.3027 99.4847 34.8809 99.8586 34.4272 100.194C29.6284 103.813 25.6873 107.95 21.8422 112.204C21.5638 112.498 21.2955 112.837 20.9531 113.054C20.2903 113.484 19.5319 113.196 19.2897 112.444C19.1972 112.143 19.1216 111.814 19.1168 111.492C18.9302 106.365 18.7656 101.234 19.2718 96.1093C19.9531 89.2369 22.1309 82.8512 25.4531 76.8254C26.3512 75.2111 27.4599 73.7099 28.6596 72.3032C31.506 68.9254 35.154 66.7249 39.2685 65.2479C43.5363 63.7357 47.9468 63.0445 52.443 62.726C56.688 62.419 60.9212 62.161 65.1712 61.876C67.7607 61.6959 70.3434 61.5866 72.9228 61.3627C74.7807 61.2124 76.573 60.7771 78.2577 59.9743C80.0908 59.1143 81.4101 57.7262 82.0471 55.7796C82.4814 54.4566 82.4132 53.1568 81.7719 51.8735C80.863 50.0285 79.4767 48.6165 77.6888 47.666C75.6583 46.5637 73.5197 45.6939 71.3069 45.0027C68.7957 44.2186 66.2402 44.0447 63.622 44.3006C61.3207 44.5298 59.085 45.0439 56.8407 45.7216C51.1448 47.4468 45.8159 49.9647 40.6013 52.7793C39.5759 53.3382 38.6095 53.9528 37.7222 54.7107C37.4726 54.9296 37.2179 55.1267 36.9261 55.263C36.6782 55.3893 36.4001 55.384 36.1473 55.1882C35.8997 55.0144 35.7651 54.63 35.9019 54.3216C36.2092 53.6509 36.4626 52.9464 36.8559 52.3483C39.2136 48.8521 41.6841 45.4453 44.7191 42.4858C49.2774 38.0219 54.4421 34.388 60.164 31.5721C65.2199 29.0709 70.5734 27.5628 76.1539 26.741C80.996 26.0199 85.8341 26.0842 90.6702 26.5414C94.4006 26.9067 98.1022 27.3478 101.794 28.0452C104.158 28.4937 106.493 29.1108 108.712 30.0313C114.174 32.3062 118.458 35.9827 121.421 41.1401C122.494 42.9936 123.335 44.9463 123.984 46.9664C124.748 49.2832 124.839 51.6855 124.7 54.0944C124.579 56.1762 124.267 58.2326 123.885 60.2822C123.568 62.0166 123.317 63.7359 123.071 65.4772C122.926 66.5492 122.982 67.5978 123.334 68.6247C123.391 68.7731 123.475 68.9384 123.611 69.2301C123.846 68.9454 123.996 68.7955 124.119 68.6287C124.968 67.3026 126.016 66.1385 127.118 65.0082C129.672 62.3669 132.842 61.1994 136.426 60.929C139.42 60.7021 142.206 61.3768 144.768 62.9802C144.929 63.0815 145.086 63.1609 145.346 63.2858C145.826 62.9676 146.312 62.6713 146.804 62.3041C148.685 60.9485 150.608 59.6755 152.706 58.6623C156.632 56.7671 160.66 55.2176 165.022 54.5146C170.872 53.5615 176.519 54.1323 182.008 56.4241C188.108 58.9675 193.468 62.6044 198.087 67.3349C200.811 70.1471 203.015 73.3096 204.688 76.8713C205.962 79.6015 207.148 82.3519 207.933 85.2638C208.611 87.8082 209.354 90.3374 210.075 92.8717C211.052 96.3165 211.558 99.8233 212.07 103.352C212.331 105.092 212.457 106.84 212.582 108.588C212.702 110.315 212.468 112.007 211.995 113.662C211.825 114.232 211.586 114.795 211.238 115.29C210.755 116.001 209.985 116.063 209.313 115.548C208.979 115.302 208.718 114.969 208.418 114.669C205.856 111.958 203.328 109.193 200.705 106.519C197.36 103.111 193.613 100.165 189.463 97.7733C185.928 95.7477 182.364 93.7979 178.545 92.3452C175.029 91.0074 171.407 90.1095 167.709 89.483C167.541 89.4525 167.355 89.449 167.165 89.4235C166.868 89.838 167.262 90.0473 167.383 90.2733C170.151 95.0833 172.216 100.147 173.176 105.627C173.555 107.778 173.683 109.941 173.631 112.122C173.639 112.259 173.648 112.395 173.671 112.598C173.93 112.723 174.222 112.886 174.503 113.006C176.388 113.773 178.272 114.54 180.173 115.28C182.999 116.43 185.784 117.705 188.452 119.168C192.151 121.203 195.625 123.565 198.367 126.858C202.261 131.547 203.932 136.909 202.95 142.974C202.579 145.275 201.888 147.488 201.018 149.626C198.645 155.365 195.463 160.597 191.139 165.076C187.878 168.457 184.1 171.195 180.083 173.596C179.288 174.055 178.415 174.371 177.546 174.71C177.206 174.834 176.828 174.898 176.467 174.935C175.451 175.03 174.77 174.679 174.368 173.733C174.065 173.018 173.801 172.271 173.602 171.509C173.342 170.576 173.125 169.634 172.925 168.664C172.364 166.024 171.462 163.508 170.539 160.997C170.472 160.805 170.317 160.633 170.105 160.313C169.966 160.714 169.841 160.973 169.782 161.218C168.563 166.252 167.561 171.329 167.108 176.487C166.787 180.207 166.231 183.912 165.959 187.644C165.631 192.243 165.473 196.872 165.309 201.479C165.183 205.546 165.079 209.609 165.089 213.668C165.123 217.63 165.326 221.622 165.452 225.585C165.576 229.134 165.634 232.698 165.785 236.263C165.955 240.517 166.465 244.738 167.11 248.952C167.713 252.875 168.429 256.795 169.387 260.659C170.335 264.48 171.388 268.254 172.401 272.059C172.549 272.602 172.692 273.123 172.796 273.676C172.954 274.563 172.692 275.131 171.873 275.481C171.08 275.848 170.245 276.132 169.401 276.372C168.731 276.572 168.44 276.409 168.115 275.699C167.559 274.488 166.955 273.265 166.526 272.002C164.918 267.318 163.529 262.583 162.766 257.659C162.313 254.786 161.811 251.901 161.429 249.035C161.06 246.327 160.784 243.621 160.574 240.9C160.16 235.688 159.795 230.487 159.429 225.286C159.136 220.899 159.187 216.503 159.313 212.135C159.431 207.931 159.527 203.732 159.574 199.521C159.612 196.373 159.884 193.241 160.324 190.14C160.728 187.278 161.094 184.355 161.516 181.073ZM109.595 108.132C109.308 108.59 109.173 108.806 109.021 109.049C108.022 110.825 106.995 112.584 106.018 114.355C102.826 120.143 99.7632 125.994 97.149 132.088C96.1509 134.371 96.1492 134.464 96.7525 136.887C96.7828 137.018 96.813 137.15 96.8433 137.281C97.4383 139.568 98.3132 141.766 99.2708 143.923C100.28 146.207 101.643 148.317 102.978 150.41C105.411 154.166 107.766 157.986 109.692 162.043C111.114 165.016 112.152 168.124 112.822 171.339C112.913 171.734 112.943 172.165 112.941 172.558C112.946 172.88 112.613 173.141 112.301 173.19C111.989 173.238 111.605 173.073 111.513 172.771C111.398 172.474 111.367 172.135 111.274 171.834C110.815 170.139 110.422 168.429 109.875 166.755C108.937 163.878 107.525 161.249 106.085 158.603C104.552 155.748 102.698 153.105 100.999 150.334C100.11 148.877 99.199 147.425 98.4095 145.898C97.1571 143.463 96.1189 140.956 95.4163 138.302C95.3558 138.039 95.4017 137.636 94.8791 137.571C94.7474 137.902 94.5887 138.215 94.462 138.567C92.9705 142.418 91.4959 146.242 90.0263 150.088C88.2358 154.746 86.1909 159.301 83.7348 163.674C80.838 168.84 77.9363 173.985 74.9367 179.105C72.2022 183.773 69.3868 188.39 66.6034 193.045C63.8538 197.647 61.2928 202.367 59.3807 207.399C59.2709 207.725 59.0414 208.031 59.1372 208.448C59.3294 208.38 59.4659 208.372 59.5874 208.298C63.1812 206.364 67.0203 205.596 71.093 205.744C72.0252 205.784 72.9355 205.828 73.8677 205.868C75.2635 205.916 76.6359 205.762 77.9646 205.318C82.2526 203.893 84.8696 200.822 85.0516 196.396C85.0929 195.371 85.1172 194.373 85.0877 193.341C84.9828 189.373 85.4763 185.497 86.4435 181.675C86.7158 180.551 87.0858 179.45 87.5317 178.378C88.4708 176.039 90.0231 174.159 92.2291 172.913C93.2713 172.327 94.3556 171.824 95.4349 171.299C96.6188 170.727 97.8934 170.549 99.2 170.41C103.244 170.034 106.938 172.346 108.773 176.009C109.629 177.728 109.987 179.584 110.147 181.486C110.345 183.748 110.149 186.008 109.861 188.267C109.045 194.455 107.535 200.433 104.203 205.815C104.119 205.95 104.137 206.13 104.071 206.445C105.058 206.219 105.923 206.066 106.767 205.826C108.111 205.447 109.418 205.008 110.757 204.608C113.89 203.68 116.775 202.278 119.42 200.331C121.866 198.522 123.904 196.346 125.443 193.707C127.298 190.534 127.535 187.249 126.066 183.871C125.679 182.991 125.265 182.094 124.856 181.219C123.005 177.283 121.032 173.421 119.599 169.296C118.786 166.968 118.237 164.578 118.131 162.11C118.043 160.123 118.444 158.253 119.399 156.488C120.016 155.353 120.841 154.425 122.013 153.902C122.805 153.535 123.662 153.246 124.5 153.076C127.966 152.394 131.132 153.213 133.873 155.398C136.324 157.327 138.402 159.641 140.049 162.286C141.664 164.891 142.948 167.665 143.913 170.559C145.385 174.951 145.982 179.453 145.435 184.102C145.366 184.602 145.323 185.12 145.298 185.61C145.25 186.406 145.452 186.683 146.239 186.894C146.999 187.089 147.783 187.185 148.565 187.075C152.456 186.434 155.875 184.84 158.62 181.924C160.212 180.219 160.971 178.198 160.873 175.867C160.809 174.082 160.284 172.402 159.891 170.692C159.558 169.246 159.055 167.861 158.36 166.544C157.207 164.34 156.01 162.146 154.51 160.137C152.711 157.735 150.869 155.343 149.014 153C146.025 149.234 142.958 145.531 139.641 142.048C138.486 140.836 137.413 139.583 136.335 138.308C134.509 136.189 133.048 133.848 131.907 131.295C131.148 129.6 130.581 127.838 130.54 125.955C130.518 124.552 130.757 123.182 131.467 121.957C132.212 120.678 133.274 119.88 134.736 119.613C135.996 119.369 137.216 119.458 138.443 119.776C140.066 120.21 141.586 120.899 142.925 121.907C144.179 122.842 145.404 123.852 146.568 124.9C149.577 127.647 152.263 130.698 154.933 133.777C155.936 134.931 156.858 136.127 157.806 137.34C158.69 138.475 159.492 139.652 160.398 140.782C163.392 144.571 165.901 148.656 168.371 152.772C168.862 153.606 169.337 154.466 169.768 155.336C171.789 159.51 173.426 163.818 174.47 168.355C174.727 169.473 175.011 170.608 175.29 171.721C175.443 172.286 175.623 172.867 176.055 173.345C176.411 173.286 176.738 173.303 177.035 173.189C177.799 172.898 178.612 172.618 179.318 172.179C183.42 169.643 187.33 166.875 190.611 163.282C194.662 158.819 197.711 153.71 199.853 148.071C200.57 146.175 201.132 144.2 201.41 142.198C202.098 137.262 200.758 132.839 197.865 128.889C196.551 127.091 194.949 125.544 193.163 124.201C190.678 122.326 188.029 120.743 185.245 119.375C181.262 117.406 177.101 115.871 172.997 114.184C170.474 113.148 167.968 112.086 165.474 110.975C161.952 109.408 158.729 107.333 155.691 104.963C154.594 104.107 153.553 103.193 152.641 102.133C151.696 101.035 150.894 99.8578 150.335 98.5324C149.412 96.3216 149.728 94.2871 151.139 92.3934C151.704 91.6403 152.425 91.0593 153.187 90.5609C154.833 89.49 156.631 88.7766 158.518 88.2504C161.359 87.4585 164.273 87.3883 167.179 87.7816C171.136 88.3258 174.98 89.2879 178.713 90.668C182.798 92.1748 186.627 94.2715 190.378 96.4322C194.658 98.8865 198.495 101.927 201.937 105.451C204.5 108.07 206.965 110.757 209.463 113.39C209.645 113.579 209.759 113.876 210.181 113.802C210.272 113.597 210.402 113.359 210.456 113.093C210.639 112.081 210.827 111.092 210.917 110.079C211.061 108.5 210.911 106.942 210.689 105.377C210.45 103.632 210.122 101.907 209.904 100.157C209.537 97.3571 208.863 94.6273 208.075 91.9008C207.676 90.4693 207.239 89.0698 206.863 87.6332C206.037 84.5459 205.085 81.5108 203.683 78.6254C202.313 75.7788 200.81 73.0551 198.772 70.6159C196.382 67.75 193.625 65.2917 190.632 63.1181C187.252 60.6644 183.591 58.691 179.629 57.3174C176.192 56.1229 172.646 55.5538 169.003 55.7685C165.043 56.0099 161.241 56.8381 157.541 58.312C154.055 59.7136 150.733 61.4238 147.717 63.6636C146.832 64.3288 145.909 64.9332 144.996 65.5816C141.905 67.7926 138.554 69.5787 135.188 71.299C132.852 72.4823 130.399 73.2542 127.777 73.3955C127.324 73.4305 126.88 73.5094 126.361 73.5596C126.067 74.0887 125.822 74.6296 125.47 75.1031C125.139 75.5715 124.592 75.9048 124.688 76.6214C124.927 76.6586 125.118 76.6841 125.281 76.6926C128.432 76.545 131.551 76.0585 134.559 75.0898C138.127 73.9462 141.643 72.6761 145.196 71.4668C147.25 70.7637 149.294 70.0168 151.367 69.4013C156.448 67.9099 161.626 67.0424 166.931 66.9301C169.48 66.8747 172.022 66.8902 174.54 67.3034C179.391 68.1264 184.097 69.4213 188.615 71.4055C189.334 71.7247 190.02 72.0978 190.728 72.4658C191.014 72.6076 191.289 72.7983 191.542 72.9941C191.762 73.151 191.949 73.3619 192.114 73.5778C192.386 73.9539 192.333 74.4276 192.028 74.7055C191.761 74.9514 191.33 74.9814 191.013 74.7081C189.898 73.6722 188.528 73.1334 187.152 72.5726C185.604 71.9595 184.055 71.3464 182.465 70.858C178.478 69.6749 174.45 68.6166 170.239 68.5695C168.989 68.5568 167.745 68.5659 166.501 68.5751C161.103 68.6856 155.836 69.6661 150.698 71.3091C147.388 72.3703 144.168 73.6187 140.895 74.7406C138.094 75.7078 135.293 76.675 132.422 77.3353C130.537 77.7688 128.616 78.0488 126.671 78.2193C125.676 78.3096 124.636 78.2026 123.597 78.603C123.245 79.3765 122.897 80.1719 122.549 80.9673C122.201 81.7627 121.853 82.5582 121.5 83.3317C121.636 83.6234 121.731 83.8325 121.842 84.0147C124.45 88.3305 127.279 92.5033 130.678 96.245C134.173 100.103 138.253 103.296 142.776 105.902C144.055 106.646 145.351 107.364 146.646 108.081C148.973 109.369 150.909 111.163 152.772 113.042C152.954 113.231 153.146 113.464 153.289 113.685C153.39 113.823 153.457 114.015 153.52 114.186C153.612 114.487 153.442 114.85 153.155 115.008C152.89 115.161 152.612 115.156 152.364 114.982C152.144 114.825 151.974 114.587 151.792 114.398C149.903 112.409 147.875 110.614 145.45 109.302C143.469 108.212 141.465 107.126 139.568 105.901C134.459 102.553 129.997 98.5017 126.33 93.5983C124.5 91.1576 122.791 88.6428 121.159 86.064C121.016 85.8431 120.929 85.5632 120.59 85.595C120.517 85.6809 120.435 85.723 120.406 85.7988C120.24 86.183 120.048 86.5504 119.882 86.9346C117.197 93.0216 114.49 99.1136 111.34 104.984C111.035 105.562 110.97 106.085 111.111 106.699C111.614 108.983 112.512 111.084 113.586 113.145C115.477 116.749 117.709 120.136 120.207 123.369C122.411 126.232 124.196 129.376 125.689 132.656C125.825 132.947 125.961 133.239 126.032 133.546C126.113 133.897 125.816 134.311 125.492 134.409C125.212 134.496 124.789 134.363 124.636 134.098C124.418 133.755 124.235 133.359 124.057 132.985C122.584 129.792 120.781 126.768 118.64 123.984C117.756 122.848 116.911 121.681 116.109 120.504C114.146 117.586 112.348 114.584 110.936 111.355C110.424 110.434 110.068 109.385 109.595 108.132ZM41.1305 180.925C41.325 180.165 41.4534 179.72 41.56 179.28C42.6019 174.679 44.4831 170.415 46.9322 166.414C49.2632 162.601 52.3977 159.572 56.0038 156.989C57.8457 155.665 59.9585 155.018 62.2209 154.82C63.4668 154.719 64.6399 155.003 65.5782 155.872C66.7204 156.924 67.5808 158.157 67.9994 159.677C68.6736 162.106 68.2656 164.346 66.9002 166.437C65.3391 168.781 63.3871 170.73 60.9804 172.207C59.987 172.804 58.9937 173.402 58.0592 174.055C55.0738 176.127 52.7269 178.766 51.1482 182.037C49.8363 184.762 49.4447 187.575 50.3056 190.516C50.9361 192.656 51.8415 194.686 52.7638 196.69C54.3307 200.091 56.1454 203.366 57.3329 206.924C57.353 207.012 57.5047 207.069 57.6715 207.192C57.8826 206.705 58.065 206.294 58.2473 205.883C59.1018 203.979 59.8315 202.034 60.8158 200.192C62.4685 197.043 64.1971 193.922 66.0336 190.869C70.8746 182.716 75.7476 174.603 80.4539 166.367C84.8951 158.584 88.3403 150.383 91.3913 141.974C91.4605 141.773 91.6175 141.552 91.299 141.372C90.9516 141.567 90.5873 141.789 90.2179 141.99C86.5954 144 82.744 145.416 78.6504 146.08C76.516 146.433 74.3798 146.878 72.2435 147.323C69.7785 147.844 67.4078 148.574 65.4123 150.233C65.0631 150.521 64.6771 150.448 64.4092 150.186C64.1364 149.903 64.0625 149.481 64.3139 149.17C64.5654 148.858 64.8926 148.575 65.2299 148.336C66.5186 147.416 67.9655 146.784 69.4796 146.343C72.0139 145.622 74.5683 144.988 77.1883 144.64C82.5159 143.922 87.3589 142.001 91.8284 139.058C92.4693 138.633 92.9266 138.113 93.1969 137.381C93.5651 136.373 94.0901 135.445 94.3606 134.413C94.6261 133.36 95.21 132.487 95.6103 131.518C96.068 130.398 96.5577 129.316 97.0693 128.229C99.7254 122.518 102.646 116.953 105.75 111.486C106.868 109.521 107.985 107.556 109.098 105.569C109.211 105.359 109.27 105.114 109.373 104.86C109.231 104.846 109.178 104.812 109.139 104.844C108.808 105.013 108.483 105.203 108.179 105.388C104.465 107.604 100.469 109.192 96.3177 110.308C92.4295 111.364 88.4321 111.845 84.4197 112.26C82.3915 112.472 80.3634 112.685 78.4713 113.489C77.8002 113.782 77.1492 114.163 76.505 114.472C76.1525 114.646 75.7126 114.539 75.5055 114.241C75.2984 113.942 75.3072 113.478 75.5956 113.227C75.901 112.95 76.2332 112.689 76.6076 112.51C77.9298 111.837 79.3411 111.351 80.813 111.128C82.5917 110.834 84.3906 110.628 86.1675 110.427C90.8308 109.932 95.3965 109.112 99.8296 107.516C103.647 106.154 107.158 104.261 110.523 102.034C111.087 101.673 111.488 101.212 111.762 100.595C113.999 95.6725 116.285 90.7619 118.528 85.8614C118.624 85.6778 118.644 85.4654 118.692 85.2699C118.513 85.1955 118.427 85.123 118.356 85.1162C116.293 85.1753 114.328 84.6579 112.374 84.0917C109.781 83.3497 107.335 82.2504 104.873 81.178C102.747 80.2594 100.637 79.3137 98.4812 78.4709C96.1202 77.5368 93.6561 76.8573 91.1243 76.5856C89.115 76.3784 87.0669 76.2032 85.044 76.1376C80.6325 76.0213 76.2678 76.3096 72.0286 77.746C71.941 77.7662 71.8533 77.7863 71.7656 77.8065C71.3879 77.8703 71.1015 77.7284 70.9432 77.4417C70.7699 77.0893 70.8326 76.6595 71.18 76.4642C71.5662 76.2369 71.9963 75.9995 72.4346 75.8987C74.1005 75.5156 75.7562 75.0887 77.4574 74.859C80.2527 74.4701 83.0747 74.3981 85.8882 74.4896C90.0098 74.6495 94.0873 75.1196 97.9938 76.5521C99.6033 77.1282 101.184 77.7801 102.765 78.432C104.887 79.3288 107.001 80.2963 109.128 81.215C111.049 82.0425 113.035 82.6475 115.072 83.0789C116.116 83.3006 117.168 83.3587 118.225 83.4387C118.715 83.4644 119.239 83.4361 119.759 83.0859C120.546 81.2895 121.361 79.4172 122.182 77.5668C122.245 77.4371 122.236 77.3005 122.262 77.1101C122.063 76.9481 121.859 76.7642 121.677 76.5752C121.051 75.9578 120.368 75.3992 119.78 74.7498C116.523 71.0217 113.481 67.1286 110.855 62.9324C108.445 59.0786 105.786 55.4437 102.669 52.1221C100.283 49.5781 97.6301 47.3728 94.6308 45.5701C92.1707 44.1049 89.5755 42.8555 86.9061 41.7847C84.9781 41.028 83.0283 40.2763 80.9076 40.187C80.8588 40.1752 80.8149 40.1853 80.766 40.1734C80.2823 40.077 79.9774 39.7548 80.0182 39.33C80.0371 38.9102 80.3475 38.6542 80.8886 38.599C81.1617 38.5824 81.4568 38.5607 81.7231 38.6148C82.495 38.7604 83.262 38.884 84.0271 39.1004C86.6328 39.7936 89.078 40.8929 91.4895 42.0461C96.5888 44.4505 100.985 47.7091 104.729 51.9483C107.602 55.2108 110.143 58.7343 112.469 62.4229C115.021 66.4977 118.01 70.2643 121.177 73.8978C121.711 74.5135 122.289 75.1192 123.023 75.5041C123.857 74.4124 124.124 73.8664 124.339 72.8939C124.189 72.7437 124.017 72.5986 123.845 72.4535C122.192 70.9873 121.393 69.1171 121.352 66.934C121.338 65.9681 121.438 64.9988 121.587 64.0414C121.806 62.5834 122.068 61.1153 122.336 59.6691C122.718 57.6195 122.986 55.5732 123.059 53.4795C123.131 51.3858 123.045 49.3055 122.313 47.3276C121.738 45.729 121.048 44.1337 120.264 42.6294C117.609 37.6089 113.589 34.0792 108.428 31.8045C106.35 30.8976 104.157 30.2941 101.929 29.8373C98.1076 29.0774 94.2594 28.6008 90.3925 28.2438C85.7907 27.802 81.1818 27.7311 76.5589 28.4018C70.9784 29.2236 65.64 30.7974 60.569 33.2329C57.7612 34.5709 55.2076 36.312 52.6591 38.0751C47.7391 41.4682 43.5687 45.612 40.1529 50.5285C40.0297 50.6952 39.9874 50.9127 39.8169 51.275C40.3009 51.0714 40.5976 50.957 40.8675 50.8257C45.0836 48.5868 49.3721 46.5621 53.8861 45.0164C56.8184 44.0189 59.7658 43.0873 62.8814 42.7862C65.8604 42.4935 68.7666 42.5867 71.6688 43.4655C74.0283 44.1922 76.2747 45.1296 78.4569 46.2893C80.3476 47.2854 81.7929 48.7531 82.8822 50.5796C84.384 53.096 84.2219 55.6026 82.7837 58.0796C81.8368 59.682 80.489 60.8458 78.7942 61.6048C77.0606 62.3958 75.2126 62.89 73.3059 63.0285C70.6776 63.2406 68.0561 63.3819 65.4178 63.5501C61.0312 63.8435 56.6463 64.0441 52.2748 64.4032C47.8814 64.7673 43.5536 65.4164 39.3885 66.9743C35.817 68.3033 32.6547 70.2075 30.1121 73.1C28.796 74.6027 27.6198 76.2117 26.6593 77.9558C23.5615 83.653 21.4935 89.7135 20.8631 96.2049C20.4112 100.763 20.4937 105.336 20.647 109.917C20.6536 110.146 20.7259 110.36 20.7493 110.563C20.864 110.559 20.9129 110.571 20.9567 110.561C21.1676 110.374 21.3835 110.209 21.5724 110.027C25.4478 105.905 29.3703 101.887 33.9834 98.5649C34.1048 98.4908 34.1993 98.3999 34.3157 98.3038C38.536 94.9794 43.0426 92.0968 47.9887 89.9208C49.9802 89.0474 51.9718 88.174 54.0727 87.5755C57.7755 86.5163 61.5118 85.7032 65.3572 85.4651C70.639 85.1505 75.89 85.3046 81.0797 86.3959C82.4871 86.6953 83.8489 87.0976 85.2157 87.5218C86.5387 87.956 87.7368 88.6498 88.8217 89.5542C89.6489 90.2409 90.2821 91.0877 90.6337 92.1146C91.1467 93.5428 91.294 94.9859 91.0366 96.476C90.6065 99.0212 89.4585 101.154 87.532 102.913C84.062 106.088 79.9657 108.045 75.5278 109.32C69.8775 110.942 64.1063 112.039 58.2846 112.916C54.4491 113.498 50.5782 113.927 46.7376 114.487C42.4266 115.109 38.1811 116.016 34.0718 117.515C32.4074 118.105 30.8172 118.817 29.3263 119.76C25.9801 121.868 23.8992 124.862 23.2034 128.761C22.775 131.213 22.8271 133.647 23.4035 136.053C24.0253 138.657 24.6689 141.255 25.3176 143.875C25.3529 144.029 25.4708 144.14 25.6089 144.339C25.7878 144.113 25.921 143.99 26.0223 143.829C27.7794 140.932 29.9021 138.321 31.9928 135.671C34.313 132.714 36.96 130.074 39.8209 127.662C42.0999 125.731 44.5522 124.151 47.2336 122.865C52.3045 120.43 57.6023 118.981 63.2313 118.771C66.0702 118.672 68.8532 118.932 71.6106 119.683C73.3145 120.168 74.9154 120.907 76.3357 121.965C78.6119 123.634 79.6166 125.896 79.2082 128.736C78.9642 130.384 78.2062 131.805 77.1567 133.062C75.5706 134.996 73.7436 136.685 71.7027 138.147C67.7761 140.942 63.5902 143.313 59.2258 145.309C55.5327 147.012 51.8816 148.798 48.3989 150.914C46.456 152.099 44.567 153.318 42.7942 154.742C40.5338 156.554 38.6172 158.656 37.1082 161.126C35.0304 164.535 34.6737 168.102 36.0531 171.893C37.2645 175.053 39.1875 177.795 41.1305 180.925ZM165.57 151.432C165.449 151.206 165.386 151.035 165.28 150.875C163.369 147.784 161.393 144.707 159.117 141.838C158.238 140.725 157.41 139.531 156.531 138.417C155.545 137.144 154.538 135.875 153.492 134.639C152.51 133.48 151.507 132.326 150.447 131.231C148.564 129.264 146.642 127.329 144.703 125.421C143.654 124.37 142.464 123.513 141.18 122.747C140.156 122.105 139.057 121.642 137.862 121.363C136.911 121.144 135.947 121.065 134.983 121.287C134.057 121.477 133.392 121.999 132.93 122.798C132.4 123.704 132.212 124.694 132.193 125.713C132.185 126.984 132.44 128.195 132.871 129.365C133.973 132.251 135.517 134.849 137.508 137.184C139.05 138.976 140.627 140.713 142.208 142.473C143.549 143.987 144.951 145.465 146.236 147.039C149.313 150.786 152.39 154.532 155.273 158.438C157.012 160.785 158.487 163.284 159.841 165.858C160.788 167.671 161.374 169.613 161.788 171.618C161.829 171.793 161.852 171.995 161.914 172.166C161.982 172.358 161.911 172.651 162.319 172.719C162.425 172.279 162.581 171.851 162.638 171.399C163.043 168.744 163.546 166.113 163.814 163.467C164.245 159.421 164.833 155.455 165.57 151.432ZM161.278 89.4157C160.327 89.4959 159.385 89.7126 158.457 89.9951C156.69 90.5399 154.98 91.2332 153.486 92.3615C151.814 93.6229 150.557 95.7814 152.058 98.5978C153.023 100.384 154.31 101.865 155.868 103.122C159.199 105.864 162.833 108.121 166.788 109.865C166.994 109.956 167.216 110.02 167.493 110.118C167.581 109.798 167.662 109.549 167.694 109.287C167.943 107.661 167.712 106.052 167.42 104.481C166.545 99.9743 164.94 95.7047 162.785 91.6538C162.369 90.8494 161.959 90.0669 161.278 89.4157ZM128.827 71.5385C129.935 71.5377 130.987 71.2958 132.278 70.791C135.197 69.6351 137.928 68.061 140.631 66.47C140.714 66.4279 140.776 66.2982 140.871 66.2072C136.16 64.5903 129.907 68.4055 128.827 71.5385Z" fill="#6BB451"/>
</svg>
