<svg width="20" height="20" viewBox="0 0 20 20" fill="none" xmlns="http://www.w3.org/2000/svg">
<path d="M6.25433 2.49538C9.682 1.8456 12.7714 2.63521 15.2913 5.26357C16.5378 6.56931 17.5684 8.0401 18.3173 9.69104C18.9248 11.0283 19.1766 12.4243 18.7018 13.8721C18.0885 15.7209 16.3801 16.6215 14.5313 16.0081C13.9785 15.8121 13.4494 15.5184 12.9371 15.1977C12.4738 14.8889 12.083 14.4941 11.6753 14.1263C11.1548 13.669 10.6511 13.1848 10.1305 12.7276C9.20735 11.9245 8.15921 11.3809 6.93045 11.1557C6.20735 11.022 5.47922 10.8663 4.75612 10.7326C3.88136 10.5414 3.06906 10.2205 2.34796 9.69401C0.410387 8.29334 0.277185 6.10847 2.05857 4.52184C3.26304 3.43712 4.71321 2.91901 6.25433 2.49538ZM17.2101 11.3996C17.0856 11.0589 16.9999 10.6863 16.8535 10.3507C16.0709 8.75371 15.0942 7.31669 13.819 6.08679C13.1115 5.41868 12.3314 4.8365 11.3995 4.49694C8.79905 3.52564 6.32749 3.81707 3.94444 5.1959C3.65774 5.35414 3.40303 5.55119 3.15337 5.77014C2.22048 6.63086 2.25684 7.59178 3.32338 8.31579C3.81369 8.64152 4.37655 8.88133 4.94621 9.05034C5.56476 9.23119 6.21202 9.33621 6.83736 9.44626C8.73025 9.74946 10.3344 10.6037 11.7175 11.9011C12.2801 12.441 12.8478 13.0028 13.4661 13.4837C13.9227 13.8633 14.4399 14.2059 14.9977 14.4238C15.9887 14.8191 16.8319 14.3713 17.1732 13.3466C17.3878 12.6741 17.3782 12.0302 17.2101 11.3996Z" fill="#6BB451"/>
</svg>
