<svg width="13" height="15" viewBox="0 0 13 15" fill="none" xmlns="http://www.w3.org/2000/svg">
<path d="M11.3793 8.79255C11.7218 10.5831 11.1459 11.8925 9.60108 12.8016C7.67 13.9381 5.21905 13.717 3.50571 12.2879C2.61956 11.5454 2.04884 10.569 2.016 9.42262C1.95995 7.77389 1.92077 6.09819 2.30637 4.46328C2.64638 2.93117 3.61806 2.03848 5.12871 1.78339C6.63936 1.52831 7.86788 2.05351 8.71653 3.33534C8.96574 3.71652 9.21998 4.11962 9.34271 4.55295C9.65217 5.49722 10.1607 6.3034 10.6354 7.16351C10.9199 7.69812 11.1386 8.24786 11.3793 8.79255ZM9.70334 9.13178C9.68318 9.0441 9.63781 8.84683 9.55869 8.70348C8.79443 7.28685 8.09089 5.83319 7.39239 4.40143C6.98846 3.54812 6.17616 3.2272 5.31628 3.40187C4.5272 3.58333 4.043 4.087 3.88055 4.88594C3.57934 6.38604 3.60516 7.90326 3.67481 9.4104C3.71315 9.97853 3.98755 10.4693 4.37835 10.8641C5.54066 12.0045 7.47916 12.2049 8.84363 11.3142C9.71557 10.7906 9.95537 10.2277 9.70334 9.13178Z" fill="#6BB451"/>
</svg>
