<svg width="16" height="21" viewBox="0 0 16 21" fill="none" xmlns="http://www.w3.org/2000/svg">
<path d="M10.8646 18.784C9.33031 19.1368 7.84861 19.016 6.36889 18.5024C5.31221 18.1223 4.4243 17.4726 3.69334 16.6022C2.95229 15.6879 2.69347 14.6628 2.90678 13.4829C3.09641 12.4008 3.23717 11.3068 3.35601 10.2179C3.37815 9.91281 3.25871 9.5941 3.12239 9.30236C2.78749 8.54856 2.36492 7.81493 2.07386 7.05106C1.23094 4.89094 2.34339 2.90426 4.6212 2.47276C5.61763 2.28977 6.53623 2.47084 7.47325 2.83231C9.72646 3.69883 12.9909 7.05602 13.0728 10.222C13.094 11.1171 13.4052 11.9687 13.9155 12.6822C14.7238 13.7886 14.8982 14.9486 14.3781 16.199C13.8342 17.5472 12.7565 18.2797 11.4126 18.658C11.2153 18.7033 11.04 18.7437 10.8646 18.784ZM11.263 9.27655C10.4858 7.10131 8.97174 5.234 6.49781 4.21053C6.29222 4.11934 6.04784 4.06016 5.83544 4.03977C5.42074 4.04282 5.00099 4.02396 4.61149 4.13661C3.65714 4.40223 3.22159 5.21781 3.51418 6.18904C3.66891 6.66117 3.91132 7.11315 4.11493 7.59712C4.33541 8.05413 4.62166 8.49602 4.77639 8.96815C4.92104 9.39645 5.03192 9.87867 4.99114 10.3035C4.89926 11.4092 4.75851 12.5032 4.54695 13.5904C4.37267 14.4382 4.53902 15.1615 5.13365 15.7402C5.51941 16.113 5.97597 16.4927 6.44611 16.7307C8.07903 17.5091 9.74792 17.5407 11.419 16.8795C12.881 16.3125 13.3102 14.9676 12.5223 13.6487C11.8876 12.5946 11.4501 11.4952 11.3752 10.2662C11.3956 10.0538 11.3452 9.8346 11.263 9.27655Z" fill="#6BB451"/>
</svg>
