<svg width="23" height="16" viewBox="0 0 23 16" fill="none" xmlns="http://www.w3.org/2000/svg">
<path d="M9.40471 14.2289C6.80316 14.7579 4.77372 14.463 3.07398 12.8923C1.66903 11.5999 0.995953 9.97767 1.22331 8.05607C1.52369 5.4484 3.77721 3.70704 5.90793 3.84016C6.37655 3.87086 6.83005 3.83581 7.28684 3.91539C9.08197 4.19491 10.7697 3.80679 12.4139 3.12868C13.2165 2.80562 14.0613 2.5652 14.9212 2.39054C16.1318 2.13523 17.3235 2.29966 18.461 2.7304C19.6744 3.18986 20.5268 3.98618 20.6927 5.30964C20.8636 6.65502 20.3351 7.76892 19.2135 8.51149C18.6165 8.92573 17.9183 9.20166 17.2472 9.49447C16.9116 9.64088 16.5339 9.70466 16.1933 9.82914C15.2052 10.1487 14.3552 10.6672 13.6533 11.4287C13.191 11.9273 12.6799 12.4141 12.1317 12.8402C11.1955 13.5863 10.182 14.0963 9.40471 14.2289ZM8.83444 12.6522C9.56785 12.5297 10.3216 12.1948 10.9762 11.6289C11.5362 11.154 12.0642 10.6402 12.5923 10.1265C13.3261 9.40383 14.1391 8.82453 15.1222 8.48307C15.6989 8.28122 16.2688 8.15017 16.8084 7.88761C17.3919 7.61496 18.0023 7.35918 18.4848 6.94822C19.4227 6.10942 19.2163 4.91068 18.0754 4.36531C17.221 3.96176 16.3075 3.80258 15.3819 3.99237C14.4781 4.17711 13.5895 4.42762 12.743 4.76076C11.0888 5.39503 9.40608 5.80507 7.60415 5.59634C7.10353 5.52684 6.58427 5.57702 6.07861 5.4856C4.6105 5.22319 2.96414 6.59415 2.82117 8.38096C2.66461 10.3094 4.01519 12.1681 5.98544 12.7074C6.91413 12.9323 7.82618 12.8841 8.83444 12.6522Z" fill="#6BB451"/>
</svg>
