<svg width="15" height="10" viewBox="0 0 15 10" fill="none" xmlns="http://www.w3.org/2000/svg">
<path d="M10.3832 7.63878C8.89795 7.70339 7.61305 8.13733 6.34 8.5224C5.73635 8.70738 5.0755 8.74396 4.44161 8.79742C4.08082 8.83423 3.69988 8.78337 3.33581 8.70554C1.10253 8.22676 0.124817 5.98225 1.2811 3.98549C1.76049 3.15983 2.49083 2.62262 3.37614 2.25749C3.58525 2.16324 3.79939 2.09093 4.04554 2.0574C5.3438 1.78193 6.63702 1.48453 7.95039 1.27481C8.61804 1.16743 9.33785 1.18652 10.007 1.28649C10.5515 1.34591 11.0992 1.51996 11.5913 1.75297C13.8292 2.85381 14.0362 5.46018 12.0071 6.87299C11.4607 7.20635 10.8402 7.41829 10.3832 7.63878ZM8.32592 6.21947C8.97669 6.13905 9.36947 6.14103 9.71513 6.03846C10.1485 5.91573 10.6037 5.78797 10.9849 5.53876C12.0559 4.87707 11.9792 3.7408 10.8114 3.17855C10.5738 3.04856 10.3024 2.97249 10.0361 2.91834C9.21528 2.76093 8.40275 2.74009 7.58495 2.99739C7.15161 3.12012 6.68627 3.20406 6.24285 3.28295C5.60216 3.40721 4.97332 3.48258 4.34271 3.65067C3.95321 3.76332 3.55692 3.94677 3.2415 4.18085C2.57186 4.68101 2.27287 5.48827 2.53368 6.12064C2.82473 6.88452 3.47024 7.08224 4.19509 7.12326C5.03457 7.16098 5.84053 6.95256 6.63641 6.7003C7.28893 6.52716 7.93642 6.33212 8.32592 6.21947Z" fill="#6BB451"/>
</svg>
