<svg width="161" height="252" viewBox="0 0 161 252" fill="none" xmlns="http://www.w3.org/2000/svg">
<path opacity="0.2" d="M-2.94015 171.299C-2.13012 170.857 -1.6614 170.293 -1.12448 169.854C0.369576 168.65 1.81149 167.409 3.31352 166.249C5.23578 164.762 7.21824 163.355 9.16659 161.886C9.90854 161.319 10.6664 160.84 11.7567 160.941C11.6779 159.997 11.6411 159.159 11.5521 158.285C10.4527 147.624 10.9741 136.967 11.8829 126.309C12.4128 120.259 13.6273 114.336 14.9562 108.416C16.805 100.189 18.7059 91.9989 21.4139 83.9824C21.6096 83.4224 21.8053 82.8625 22.0532 82.3387C22.3192 81.7889 22.7155 81.3296 23.4103 81.387C24.1492 81.4364 24.6244 81.9212 24.796 82.6203C24.9676 83.3195 25.1391 84.0186 25.1781 84.7416C25.4223 89.0095 25.6484 93.3035 25.8483 97.5794C25.9516 99.5456 25.9925 101.546 26.0254 103.502C26.1672 108.975 26.3271 114.421 26.4247 119.902C26.5704 127.929 26.6981 135.982 26.7735 143.999C26.8098 147.62 26.7317 151.239 26.6796 154.876C26.658 158.302 26.5923 161.736 26.5707 165.162C26.5551 167.355 26.5316 169.503 26.5341 171.67C26.5275 172.014 26.6172 172.385 26.6548 172.721C27.2634 172.68 27.3946 172.268 27.6381 171.973C29.2461 169.881 30.854 167.789 32.4359 165.679C33.3576 164.464 34.1309 163.184 35.0265 161.95C36.7896 159.579 38.5707 157.182 40.4119 154.866C43.8249 150.509 47.0293 146.008 49.7904 141.199C50.0824 140.667 50.3564 140.161 50.7006 139.666C51.5419 138.51 51.9015 137.214 52.0604 135.816C52.4202 133.128 52.3663 130.423 51.977 127.755C51.2302 122.597 49.953 117.534 48.5694 112.513C47.3255 108.015 45.9673 103.514 44.7676 99.0076C43.2089 93.0145 41.8449 86.9635 41.2584 80.7953C40.81 76.1535 40.2654 71.4835 40.2669 66.8063C40.2667 59.4602 40.925 52.2236 42.9025 45.0915C44.256 40.1936 46.1433 35.4733 48.3356 30.9262C50.6286 26.1784 53.2006 21.5857 56.2781 17.2669C60.3238 11.6102 64.8366 6.39404 70.0333 1.80758C70.526 1.3766 71.0449 0.963789 71.5716 0.595124C72.0984 0.226458 72.6084 0.271426 73.0155 0.631558C73.4407 0.965611 73.6065 1.50609 73.3847 2.04796C73.1629 2.58983 72.8708 3.1215 72.5969 3.62713C69.6692 8.39799 67.2994 13.4791 64.8774 18.5239C63.6663 21.0463 62.8407 23.6817 62.278 26.3839C61.2985 31.0776 60.4414 35.8177 59.6546 40.5679C59.1962 43.3425 58.9124 46.1998 58.7352 49.015C58.2769 55.4627 58.162 61.917 58.3464 68.3858C58.5387 74.8988 58.6427 81.4278 58.7205 87.9386C58.7541 90.7843 58.6913 93.6018 58.6104 96.4453C58.5397 99.2186 58.3727 101.964 58.3722 104.747C58.3463 112.075 57.74 119.348 56.5797 126.584C56.4781 127.286 56.2621 127.987 56.5076 128.969C57.2467 127.627 57.8671 126.511 58.4614 125.378C59.8955 122.701 61.2856 120.032 62.7458 117.374C63.5213 115.979 64.0336 114.518 64.3193 112.938C65.7443 104.765 67.2838 96.5939 69.7346 88.6693C71.4627 83.0651 73.7507 77.6566 76.2134 72.3307C79.6675 64.9098 83.6532 57.781 88.1005 50.934C91.5129 45.688 94.8471 40.3877 98.3117 35.1779C102.265 29.264 106.48 23.5313 111.041 18.0782C113.637 15.0098 116.535 12.229 119.486 9.48453C122.086 7.07684 124.705 4.64303 127.332 2.25345C127.995 1.63197 128.737 1.06483 129.487 0.541893C129.952 0.207267 130.472 0.182058 130.949 0.552343C131.4 0.904514 131.54 1.42682 131.389 1.97884C131.276 2.36424 131.162 2.74963 130.971 3.08068C130.359 4.24045 129.773 5.4184 129.09 6.56802C126.08 11.5135 123.374 16.6321 120.773 21.8232C118.283 26.7434 115.749 31.6715 113.162 36.5634C110.493 41.6299 107.702 46.65 105.033 51.7165C102.41 56.6605 100.285 61.8343 98.2121 67.0444C98.1476 67.1929 98.1794 67.3696 98.167 67.5544C98.6205 67.7921 98.8119 67.461 99.0532 67.2807C100.555 66.1204 102.023 64.8977 103.543 63.7112C108.184 60.0918 113.176 57.0253 118.329 54.2261C125.905 50.0552 133.735 46.4088 141.927 43.6326C147.344 41.7898 152.887 40.2664 158.388 38.6366C158.778 38.5207 159.168 38.4049 159.538 38.4296C159.889 38.4804 160.29 38.6818 160.541 38.9333C160.86 39.3093 160.841 39.8374 160.543 40.2105C160.263 40.5574 159.905 40.8501 159.547 41.1427C157.158 43.0788 154.725 45.0228 152.31 46.9408C148.303 50.1495 144.502 53.6177 140.865 57.2387C136.339 61.75 131.562 66.0097 126.718 70.1448C122.607 73.6687 118.8 77.4802 115.164 81.4888C108.497 88.8041 101.347 95.5905 93.4291 101.534C91.0786 103.304 88.5898 104.938 86.101 106.573C81.3747 109.592 76.6325 112.522 71.8722 115.479C70.0268 116.632 68.1814 117.786 66.302 118.878C65.126 119.569 64.3152 120.513 63.7188 121.761C60.0495 129.381 55.8926 136.7 51.2563 143.764C49.1968 146.895 47.2155 150.081 45.0814 153.431C45.7907 153.189 46.1769 152.8 46.6153 152.448C49.6375 150.101 52.6335 147.736 55.7158 145.47C57.6279 144.053 59.6082 142.761 61.6224 141.531C65.4096 139.252 69.1787 136.999 73.034 134.844C78.4832 131.786 84.1968 129.183 90.0523 126.987C95.4195 124.994 100.837 123.151 106.222 121.131C110.303 119.597 114.29 117.921 118.329 116.281C119.67 115.743 121.002 115.16 122.351 114.666C123.034 114.406 123.759 114.253 124.373 114.873C124.874 115.375 124.824 116.114 124.216 117.045C122.946 118.985 121.381 120.682 119.73 122.279C114.488 127.376 109.246 132.472 103.944 137.488C99.2338 141.987 94.6617 146.621 90.1757 151.353C84.889 156.96 79.2915 162.234 73.5036 167.338C68.7554 171.501 64.0413 175.727 59.0266 179.551C57.3014 180.865 55.5502 182.162 53.791 183.414C49.5147 186.398 45.2303 189.337 40.9721 192.294C36.6335 195.311 32.1166 197.973 27.4615 200.5C23.0556 202.891 18.8119 205.549 14.7747 208.466C13.4799 209.384 12.2793 210.444 10.584 210.658C6.82771 218.681 2.72231 226.539 -1.82867 234.203C-1.4367 233.973 -1.06293 233.769 -0.697014 233.52C5.81891 229.038 12.2748 224.476 18.8066 220.082C21.8584 218.027 25.0985 216.257 28.2706 214.362C31.2195 212.622 34.1683 210.881 37.1433 209.159C40.8399 207.01 44.5366 204.861 48.2673 202.775C52.8079 200.246 57.2204 197.512 61.5909 194.671C64.2848 192.908 67.0308 191.181 69.8189 189.561C76.0804 185.946 82.2918 182.181 88.8437 179.039C89.911 178.504 90.9862 178.014 92.0614 177.524C92.4171 177.345 92.799 177.185 93.1627 177.051C93.7655 176.852 94.3196 176.889 94.7948 177.373C95.2518 177.884 95.1785 178.49 94.9568 179.032C94.7814 179.452 94.5357 179.861 94.3082 180.244C93.2994 181.863 92.2908 183.482 91.256 185.083C89.2588 188.181 87.2615 191.278 85.2644 194.376C78.8257 204.479 70.7769 213.115 61.0939 220.153C58.4942 222.058 55.8684 223.946 53.2687 225.851C46.7303 230.588 39.595 234.292 32.1976 237.427C26.9847 239.644 21.5198 241.221 16.065 242.729C13.3909 243.462 10.7087 244.15 8.06863 244.945C4.10848 246.138 0.043408 246.368 -4.06363 246.492C-5.80889 246.555 -7.44676 246.075 -9.13247 245.329C-9.41218 245.676 -9.7441 245.987 -9.97166 246.37C-11.6754 249.323 -13.3973 252.303 -15.0488 255.292C-16.6178 258.107 -18.1345 260.959 -19.7035 263.774C-21.3551 266.763 -23.0508 269.761 -24.7285 272.732C-26.7707 276.34 -28.9091 279.919 -31.2642 283.309C-31.5179 283.674 -31.7715 284.039 -32.0433 284.431C-31.4674 284.715 -31.1876 284.368 -30.8841 284.153C-27.9503 281.822 -24.9904 279.51 -22.1167 277.098C-15.913 271.897 -9.76929 266.615 -3.00631 262.112C5.03332 256.716 13.2872 251.625 21.8896 247.2C28.5082 243.795 35.397 241.003 42.4639 238.566C50.5596 235.762 58.6974 233.064 66.667 229.94C68.6283 229.176 70.6236 228.474 72.5929 227.754C73.1514 227.562 73.7282 227.344 74.3107 227.285C75.2728 227.18 75.9862 228.101 75.5992 228.992C75.331 229.656 74.8963 230.282 74.4115 230.757C72.6356 232.423 70.8595 234.089 68.9974 235.657C58.5324 244.432 47.4242 252.296 35.8271 259.473C32.4579 261.54 29.1149 263.625 25.7458 265.693C15.3971 272.074 4.54003 277.407 -6.74147 281.903C-11.9964 284.013 -17.2933 286.017 -22.7242 287.657C-27.0923 288.991 -31.5559 289.795 -36.176 290.491C-36.4014 290.759 -36.7071 291.088 -37.0049 291.461C-40.1223 295.559 -43.1955 299.649 -46.3651 303.711C-50.0759 308.44 -53.959 312.972 -58.458 317C-58.7898 317.31 -59.1478 317.603 -59.5057 317.896C-59.6666 318.016 -59.8013 318.154 -59.9882 318.256C-60.7982 318.699 -61.6872 318.197 -62.5845 316.762C-62.9351 316.209 -62.7712 315.472 -62.1118 315.08C-58.1978 312.618 -55.2602 309.169 -52.1662 305.828C-47.6055 300.877 -43.6867 295.403 -39.9765 289.784C-39.3685 288.853 -39.1401 287.968 -39.2508 286.847C-39.6247 283.378 -39.9103 279.893 -40.1698 276.427C-40.5594 271.478 -40.5795 266.554 -40.5555 261.621C-40.549 257.605 -40.3137 253.593 -39.8493 249.585C-38.8482 241.465 -37.6804 233.384 -35.4948 225.507C-32.9576 216.29 -29.764 207.296 -25.9583 198.534C-24.2529 194.577 -22.1123 190.883 -19.484 187.489C-19.2768 187.247 -19.1036 186.942 -18.8963 186.699C-17.9247 185.634 -17.6013 184.39 -17.617 182.909C-17.79 169.412 -16.2403 156.106 -12.9679 142.991C-11.183 135.803 -8.59322 128.902 -5.39138 122.234C-3.76726 118.839 -2.11707 115.462 -0.484996 112.111C-0.319754 111.761 -0.136497 111.386 0.0808929 111.073C0.425107 110.578 1.00983 110.404 1.47346 110.571C1.93709 110.739 2.27971 111.248 2.18035 111.836C2.09116 112.354 1.93164 112.862 1.81637 113.361C0.953698 116.551 0.0388906 119.705 -0.753507 122.904C-2.57899 130.374 -3.45471 137.924 -3.37269 145.597C-3.27119 153.632 -3.12542 161.66 -2.99783 169.713C-3.13123 170.239 -3.05161 170.681 -2.94015 171.299ZM-10.4829 142.475C-10.4807 142.361 -10.4524 142.264 -10.4422 142.194C-10.4263 142.282 -10.4104 142.371 -10.4386 142.467C-10.7757 143.509 -11.175 144.585 -11.4418 145.637C-14.5477 158.789 -15.9569 172.116 -15.4847 185.628C-15.0773 197.007 -14.3967 208.383 -13.8307 219.757C-13.8112 220.118 -13.7475 220.472 -13.6759 220.869C-13.507 220.793 -13.4187 220.777 -13.4005 220.751C-13.3113 220.233 -13.1961 219.733 -13.133 219.197C-11.9075 203.965 -10.9109 188.728 -11.6393 173.414C-12.1295 163.601 -11.6156 153.79 -10.5215 144.033C-10.4764 143.523 -10.5018 143.003 -10.4829 142.475ZM23.2545 94.5789C23.2748 94.4383 23.3132 94.2717 23.3335 94.1311C23.2893 94.1391 23.2271 94.1732 23.1829 94.1812C23.2068 94.3137 23.2748 94.4383 23.2987 94.5709C23.1596 94.9382 22.9421 95.2511 22.8732 95.6286C22.618 96.9977 22.4069 98.359 22.1698 99.7021C21.412 103.854 21.0237 108.03 20.9426 112.266C20.8943 114.784 20.8382 117.258 20.6755 119.774C20.1728 127.621 20.367 135.412 20.754 143.258C21.0284 148.707 21.2846 154.182 21.3301 159.626C21.3986 165.706 21.7062 171.719 22.6484 177.709C22.7041 178.018 22.8222 178.293 22.9199 178.709C23.7988 177.889 24.1938 177.042 24.1874 175.994C24.2178 172.11 24.2483 168.226 24.2786 164.343C24.3074 161.463 24.3542 158.557 24.3569 155.659C24.4076 151.635 24.5103 147.646 24.4907 143.612C24.4307 134.794 24.3003 125.965 24.1258 117.145C23.9727 109.963 23.7312 102.797 23.4898 95.6316C23.5224 95.3063 23.3443 94.9505 23.2545 94.5789ZM-11.1243 221.482C-11.0823 221.589 -11.0142 221.713 -10.9541 221.794C-10.9541 221.794 -10.8658 221.778 -10.8216 221.77C-10.952 221.679 -11.0824 221.588 -11.1947 221.472C-10.5013 221.142 -10.4179 220.465 -10.2823 219.825C-9.70728 216.938 -9.06993 214.017 -8.59129 211.102C-6.50489 198.748 -5.11326 186.338 -5.32194 173.782C-5.44019 166.16 -5.49614 158.505 -5.68466 150.873C-5.86821 143.902 -5.6641 136.93 -4.60664 130.009C-4.57618 129.799 -4.53784 129.632 -4.50737 129.421C-4.49502 129.236 -4.50878 129.033 -4.56232 128.61C-4.74567 128.985 -4.81806 129.089 -4.86445 129.212C-6.90132 135.761 -8.342 142.454 -8.81697 149.316C-9.40088 157.725 -9.71169 166.131 -9.39798 174.584C-9.19526 179.635 -9.01067 184.713 -9.12528 189.775C-9.36822 199.697 -9.92849 209.631 -10.8843 219.522C-10.9677 220.199 -11.0771 220.858 -11.1243 221.482ZM20.4453 96.8416C20.4033 96.7351 20.3613 96.6286 20.3193 96.5221C20.3193 96.5221 20.2491 96.512 20.2049 96.52C20.3172 96.6366 20.4033 96.7351 20.5156 96.8518C19.794 97.2784 19.7265 98.0434 19.5807 98.7541C18.2721 104.534 16.8932 110.303 15.699 116.085C14.6991 120.919 14.0325 125.83 13.7795 130.758C13.5164 135.756 13.2533 140.754 13.2191 145.757C13.1944 154.864 13.9108 163.906 16.3044 172.76C17.1508 175.939 18.1919 179.059 19.5969 182.046C19.749 182.383 19.9997 182.635 20.2402 182.956C20.9546 181.984 20.9807 182.002 20.9511 181.71C20.8896 181.242 20.81 180.801 20.7485 180.332C19.9583 174.68 19.1601 168.983 19.1734 163.232C19.1826 156.317 18.8483 149.397 18.4959 142.502C18.1905 136.374 17.9816 130.275 18.2224 124.14C18.4065 119.59 18.5724 115.065 18.7564 110.515C18.9325 105.92 19.5042 101.369 20.4453 96.8416ZM60.5437 235.081C60.0221 234.719 59.5214 235.105 59.0693 235.255C53.2261 237.266 47.3308 239.241 41.5296 241.358C34.0969 244.043 26.7379 247.012 19.8374 250.878C14.1026 254.124 8.46203 257.513 2.88157 260.982C-0.461491 263.068 -3.72847 265.322 -6.90928 267.674C-12.9753 272.121 -18.5842 277.078 -24.3236 281.945C-24.4584 282.083 -24.541 282.258 -24.7221 282.518C-24.3765 282.411 -24.1035 282.407 -23.8724 282.297C-20.9561 280.882 -17.9979 279.573 -15.194 278.041C-5.95395 272.977 3.22606 267.833 12.432 262.707C12.5567 262.639 12.6813 262.571 12.7617 262.511C24.0972 255.655 35.781 249.466 47.3207 242.984C51.3811 240.701 55.4175 238.286 59.4438 235.941C59.8358 235.71 60.1154 235.363 60.4733 235.071C60.624 235.021 60.7567 234.997 60.9074 234.947C60.8734 234.885 60.8654 234.84 60.8314 234.778C60.7509 234.838 60.6342 234.951 60.5437 235.081ZM107.18 123.536C106.64 123.2 106.158 123.561 105.732 123.729C101.892 125.082 98.0679 126.524 94.2019 127.859C89.281 129.544 84.5282 131.655 79.8173 133.873C74.6181 136.292 69.7673 139.379 64.8063 142.235C60.8163 144.528 57.0486 147.169 53.3569 149.978C45.7946 155.744 38.7076 161.994 32.7512 169.455C26.7042 177.047 21.3012 185.047 17.0116 193.782C16.3245 195.16 15.549 196.555 15.0459 198.448C15.5046 197.954 15.7379 197.73 15.901 197.495C18.9083 193.166 22.1503 189 25.4524 184.915C29.3864 180.031 33.5709 175.399 38.2228 171.207C47.9307 162.409 58.0436 154.085 68.956 146.78C74.6575 142.97 80.2808 139.105 86.2648 135.723C92.9783 131.958 99.6239 128.069 106.303 124.242C106.633 124.046 106.877 123.751 107.172 123.492C107.305 123.468 107.463 123.463 107.596 123.439C107.562 123.376 107.546 123.288 107.486 123.208C107.405 123.268 107.299 123.31 107.219 123.37C107.2 123.396 107.216 123.484 107.18 123.536ZM13.045 206.337C13.1573 206.453 13.2435 206.552 13.3558 206.669C13.6673 206.498 14.005 206.346 14.3085 206.132C18.3356 203.285 22.551 200.723 26.8867 198.322C30.1007 196.534 33.3329 194.72 36.3927 192.708C41.1291 189.619 45.7633 186.343 50.4056 183.111C52.8785 181.388 55.3695 179.639 57.7743 177.792C62.5478 174.148 67.0105 170.173 71.4992 166.216C77.2509 161.165 82.8201 155.986 88.0705 150.432C91.1001 147.24 94.1738 144.04 97.3156 140.964C102.998 135.4 108.784 129.909 114.493 124.364C115.776 123.129 116.989 121.883 118.246 120.63C117.817 120.525 117.515 120.625 117.222 120.769C113.59 122.77 109.949 124.726 106.325 126.77C101.17 129.684 96.0897 132.766 90.8999 135.618C81.9272 140.519 73.5196 146.278 65.1198 152.08C58.7285 156.494 52.8181 161.551 46.8215 166.51C42.1321 170.366 37.6673 174.456 33.5392 178.895C27.5946 185.282 22.2316 192.111 17.346 199.311C15.9104 201.6 14.5169 203.995 13.045 206.337ZM11.9794 163.57C11.6772 164.172 11.496 164.432 11.4112 164.721C9.95511 168.543 8.56925 172.374 7.08706 176.177C3.68928 184.797 0.221273 193.407 -2.78315 202.184C-3.66889 204.739 -4.55463 207.294 -5.58888 209.785C-6.13318 211.069 -6.53694 212.374 -6.77406 213.717C-7.7857 219.626 -9.13065 225.457 -11.1942 231.099C-11.7247 232.587 -12.3516 234.046 -13.0568 235.45C-13.3771 236.078 -13.5546 236.612 -13.5938 237.281C-13.7335 240.432 -13.9174 243.59 -14.057 246.741C-14.0795 246.996 -14.102 247.251 -13.6724 247.356C-12.7078 245.745 -11.6991 244.126 -10.7607 242.497C-8.51703 238.488 -6.30737 234.417 -4.01158 230.444C-0.82151 224.85 2.43885 219.267 5.68107 213.709C7.62032 210.417 9.21037 206.959 10.5215 203.346C12.4821 198.02 14.7919 192.858 17.5994 187.927C18.0465 187.116 18.4494 186.313 18.8705 185.485C14.9573 178.707 13.5936 171.264 11.9794 163.57ZM-6.56547 243.749C-5.64259 244.312 -4.88548 244.336 -4.20665 244.305C-0.372732 244.184 3.43505 244.046 7.13004 242.901C8.94638 242.346 10.7808 241.764 12.6391 241.315C17.2057 240.196 21.6542 238.802 26.0867 237.319C34.5179 234.477 42.3544 230.487 49.6985 225.536C53.9103 222.701 57.9498 219.67 62.0074 216.612C69.3544 211.045 75.6729 204.454 80.8404 196.793C83.3064 193.132 85.6681 189.398 88.0558 185.683C88.1464 185.552 88.1588 185.367 88.282 184.912C86.8503 186.082 85.6597 187.072 84.4251 188.07C76.0157 194.833 67.6064 201.595 59.2232 208.375C53.0317 213.392 46.8062 218.346 40.1599 222.738C33.1035 227.385 25.8008 231.553 17.8934 234.643C13.1631 236.499 8.3589 238.071 3.60465 239.795C0.624715 240.856 -2.32119 241.98 -5.29316 243.086C-5.66703 243.29 -5.99672 243.486 -6.56547 243.749ZM-5.28112 240.62C-4.35882 240.294 -3.75608 240.094 -3.15329 239.894C-0.989164 239.117 1.17497 238.339 3.3391 237.561C8.18175 235.822 13.0063 234.109 17.8149 232.307C19.8464 231.553 21.794 230.586 23.7676 229.638C33.451 224.882 42.381 218.984 50.7983 212.266C59.9496 204.936 69.0488 197.571 78.174 190.223C80.8846 188.047 83.5873 185.826 86.29 183.605C86.5493 183.399 86.7486 183.112 87.0001 182.861C86.0358 183.081 85.2177 183.479 84.4077 183.921C81.069 185.778 77.7304 187.634 74.4519 189.571C70.3712 191.994 66.3167 194.436 62.3302 197.002C58.1126 199.678 53.895 202.354 49.497 204.789C46.1583 206.645 42.8537 208.564 39.5491 210.482C35.8525 212.631 32.1899 214.842 28.4672 216.973C24.6822 219.138 20.9834 221.401 17.4127 223.87C12.672 227.188 7.8712 230.425 3.13839 233.787C0.870531 235.382 -1.25898 237.112 -3.45878 238.832C-4.05579 239.19 -4.67313 239.689 -5.28112 240.62ZM69.3295 114.408C69.8823 114.058 70.4431 113.751 70.996 113.401C74.0094 111.512 76.9967 109.605 80.0101 107.716C82.9612 105.861 85.9984 104.105 88.8553 102.107C97.6935 95.952 105.584 88.7131 112.862 80.7401C116.669 76.541 120.639 72.4947 124.947 68.7985C127.473 66.6096 130.069 64.4308 132.509 62.1434C136.32 58.605 140.045 54.968 143.83 51.4115C144.997 50.2888 146.216 49.2024 147.39 48.1238C147.003 48.1252 146.701 48.2251 146.416 48.4135C138.667 52.8894 131.02 57.5522 123.603 62.607C113.465 69.5211 103.885 77.1329 95.0372 85.6396C91.636 88.9215 88.1905 92.2115 85.0138 95.7268C82.6379 98.3678 80.1836 100.954 77.8077 103.595C75.6027 106.046 73.476 108.551 71.3492 111.056C70.4681 111.99 69.6913 112.997 69.3295 114.408ZM-37.9389 279.059C-37.8244 279.061 -37.702 279.108 -37.5875 279.11C-37.4599 278.425 -37.3322 277.741 -37.2568 277.02C-36.4985 270.085 -35.1339 263.223 -33.41 256.456C-32.2174 251.678 -30.9364 246.884 -29.7438 242.107C-27.6719 233.726 -25.0922 225.504 -22.0227 217.468C-20.7623 214.207 -19.5721 210.935 -17.5873 208.022C-17.0257 207.214 -16.8778 206.389 -16.9385 205.419C-17.1876 200.49 -17.3924 195.554 -17.6155 190.643C-17.6509 190.193 -17.7304 189.751 -17.7659 189.301C-17.9868 189.341 -18.1535 189.303 -18.2339 189.363C-18.5035 189.64 -18.7911 189.942 -19.0085 190.255C-20.794 192.881 -22.379 195.608 -23.685 198.49C-27.7986 207.695 -31.248 217.168 -33.7338 226.924C-37.5333 241.799 -39.2326 256.934 -38.3557 272.313C-38.1967 274.588 -38.0639 276.846 -37.9389 279.059ZM68.5348 110.376C68.613 110.431 68.7093 110.459 68.7876 110.513C69.8702 109.178 70.9527 107.842 72.0693 106.568C73.7533 104.645 75.4815 102.714 77.2177 100.827C80.0161 97.745 82.7443 94.6528 85.629 91.6692C95.9646 80.9096 107.309 71.3145 119.462 62.6686C126.338 57.7796 133.591 53.4615 140.765 49.0891C143.19 47.6029 145.622 46.1609 148.002 44.6827C148.27 44.5205 148.495 44.2516 148.746 44.001C147.563 44.1457 146.474 44.4332 145.446 44.8011C138.007 47.3275 130.804 50.4045 123.796 53.9257C110.535 60.6038 98.8289 69.3287 88.5998 80.0463C84.0877 84.7603 79.9305 89.7983 76.2768 95.2247C73.1949 99.7724 70.715 104.622 68.6624 109.692C68.6059 109.885 68.5834 110.14 68.5348 110.376ZM64.2651 14.6189C64.1687 14.5906 64.0985 14.5805 64.0022 14.5522C63.5913 15.3106 63.2246 16.0611 62.8137 16.8196C60.5983 20.7321 58.7321 24.8098 57.3998 29.0651C55.908 33.8282 54.4945 38.6457 53.1954 43.4654C50.7691 52.4122 49.6779 61.5519 49.8176 70.8121C49.9007 76.5919 50.2386 82.3942 51.0005 88.143C51.5938 92.5761 52.1873 97.0093 52.7364 101.45C53.0815 104.126 53.3382 106.817 53.6391 109.501C54.0015 112.652 54.382 115.778 54.7886 118.921C54.8364 119.186 54.7234 119.572 55.2674 119.679C55.6322 117.651 55.8383 115.63 55.9039 113.587C56.1436 105.673 56.365 97.7852 56.5605 89.8791C56.5847 88.6199 56.5465 87.3949 56.5265 86.1437C56.3821 78.5042 56.1675 70.8544 56.1195 63.2431C56.0743 56.407 56.2762 49.5493 57.1468 42.7307C57.9136 36.7293 59.1461 30.7809 60.4048 24.8506C60.7913 23.0699 61.3364 21.2835 61.9858 19.5695C62.6251 17.9258 63.4933 16.2865 64.2651 14.6189ZM68.6156 103.86C68.8228 103.617 68.9213 103.531 68.9938 103.427C70.7831 99.6821 72.8775 96.1108 75.3028 92.7309C76.5246 91.0279 77.8167 89.335 79.0906 87.6682C79.4065 87.2691 79.7927 86.8801 79.6812 86.2614C79.315 84.2285 79.9586 82.3558 80.6986 80.5114C81.8923 77.5131 83.0157 74.5045 84.2355 71.5243C85.78 67.687 87.4912 63.8882 89.6116 60.3351C92.2053 55.9894 94.8952 51.672 97.5931 47.3988C100.074 43.4386 102.658 39.5507 105.113 35.5724C107.885 31.0804 110.893 26.7515 113.986 22.5211C116.619 18.8985 119.278 15.294 121.91 11.6713C122.272 11.1498 122.609 10.6102 122.999 9.99226C122.752 10.014 122.604 9.94941 122.523 10.0095C122.139 10.284 121.808 10.5948 121.45 10.8875C115.571 16.1215 110.533 22.0939 105.928 28.4445C100.554 35.8462 95.5971 43.5378 90.6404 51.2294C89.1788 53.5003 87.7693 55.8075 86.3859 58.1328C83.3089 63.3412 80.5108 68.7047 77.9394 74.1871C73.7215 83.3198 70.4932 92.7533 68.718 102.655C68.623 103.014 68.6425 103.376 68.6156 103.86ZM60.7999 15.266C60.4318 15.6289 60.297 15.7672 60.1623 15.9056C59.8282 16.3308 59.5383 16.748 59.2042 17.1732C55.155 22.5568 51.8983 28.4136 49.129 34.5704C46.138 41.2691 43.996 48.2482 43.1688 55.5609C42.4904 61.5463 42.3322 67.5065 42.8426 73.5059C43.3061 78.7381 43.7515 83.9964 44.7975 89.1693C46.437 97.3836 48.9446 105.35 51.1948 113.409C51.2448 113.56 51.4012 113.668 51.5997 113.884C51.6244 113.514 51.6367 113.329 51.6229 113.126C51.263 108.469 50.7443 103.817 50.0931 99.1888C48.9773 91.2224 48.0021 83.2762 47.6456 75.2186C47.1569 64.4015 48.144 53.7976 50.864 43.315C51.5107 40.8258 52.1834 38.3547 52.8822 35.9018C54.6959 29.5065 56.7727 23.1779 59.9331 17.2929C60.2693 16.7532 60.5274 16.1592 60.7999 15.266ZM66.3337 234.928C66.2917 234.821 66.2496 234.715 66.2076 234.608C65.5845 234.948 64.9353 235.271 64.3202 235.655C60.1149 238.147 56.0141 240.711 51.7668 243.096C44.3758 247.279 36.9166 251.338 29.4915 255.459C25.9659 257.417 22.5186 259.43 19.0191 261.406C14.0321 264.244 9.08925 267.073 4.07617 269.893C0.701266 271.801 -2.73375 273.629 -6.07463 275.6C-10.6798 278.278 -15.3872 280.768 -20.2227 283.054C-21.8847 283.832 -23.5127 284.673 -25.185 285.522C-25.4161 285.632 -25.5791 285.867 -26.116 286.306C-25.2039 286.05 -24.6996 285.936 -24.1772 285.797C-19.1644 284.369 -14.3196 282.515 -9.44863 280.679C-1.01887 277.45 7.09878 273.501 15.0882 269.346C20.302 266.628 25.1992 263.418 30.1985 260.396C41.8297 253.281 53.1522 245.721 63.7375 237.106C64.5983 236.312 65.4751 235.607 66.3337 234.928ZM-35.17 279.359C-35.0997 279.369 -35.0033 279.397 -34.9511 279.433C-34.8142 279.181 -34.6331 278.92 -34.5483 278.631C-33.0697 274.554 -31.591 270.478 -30.1384 266.384C-27.2174 258.283 -24.2965 250.183 -21.4016 242.064C-19.6605 237.165 -17.9899 232.255 -16.2749 227.338C-15.9763 226.463 -15.8182 225.567 -15.8709 224.641C-16.1172 220.488 -16.3376 216.353 -16.602 212.225C-16.6157 212.022 -16.77 211.799 -16.8619 211.542C-17.0329 211.733 -17.1575 211.801 -17.23 211.905C-17.6612 212.804 -18.0744 213.677 -18.4534 214.612C-20.8669 220.591 -23.1319 226.634 -24.863 232.855C-27.1435 241.091 -29.2315 249.383 -31.3897 257.666C-33.073 264.152 -34.3006 270.761 -35.0364 277.441C-35.0575 278.084 -35.1228 278.734 -35.17 279.359ZM119.268 19.9269C118.473 20.0703 118.092 20.6179 117.73 21.1395C114.443 25.8154 111.033 30.4449 107.903 35.2295C103.43 42.0583 99.2092 49.0241 94.8141 55.9073C91.4176 61.2417 88.4223 66.7775 86.1153 72.7142C84.8549 75.9755 83.5685 79.2188 82.3262 82.4541C82.1972 82.7511 81.9255 83.1422 82.413 83.4422C83.7086 82.0225 84.986 80.6288 86.2816 79.2091C88.5953 76.6021 91.0995 74.1661 93.7159 71.8468C94.1101 71.5021 94.4521 71.1211 94.6297 70.5872C95.3198 68.5921 96.0359 66.6151 96.8041 64.6744C99.3873 58.1177 102.346 51.7443 105.828 45.6188C107.278 43.0305 108.658 40.432 110.03 37.7894C111.701 34.6592 113.321 31.4928 114.967 28.3446C116.429 25.5715 117.858 22.7362 119.268 19.9269ZM-16.0507 234.028C-16.2703 234.455 -16.3972 234.637 -16.4718 234.856C-21.128 248.015 -25.7661 261.147 -30.4223 274.306C-30.4506 274.402 -30.3565 274.545 -30.3167 274.766C-30.1356 274.505 -29.9826 274.34 -29.8377 274.132C-28.5732 272.033 -27.3267 269.961 -26.0622 267.862C-23.6135 263.725 -21.1908 259.57 -18.69 255.469C-17.8443 254.085 -17.2717 252.704 -17.0121 251.106C-16.0715 245.689 -15.8881 240.249 -15.8713 234.771C-15.8509 234.63 -15.9269 234.461 -16.0507 234.028ZM-3.1691 183.706C-2.77493 183.361 -2.58796 183.259 -2.52345 183.11C0.215895 178.054 2.97334 172.972 5.68662 167.897C5.74097 167.819 5.66499 167.65 5.65921 167.492C5.4904 167.568 5.26943 167.607 5.12669 167.702C2.33427 169.551 -0.0112882 171.981 -2.62336 174.071C-3.02548 174.372 -3.10455 174.82 -3.13143 175.303C-3.10364 177.991 -3.14612 180.667 -3.1691 183.706ZM5.61046 172.793C5.31045 173.281 4.96619 173.776 4.69225 174.282C3.12906 177.256 1.63615 180.239 0.0468809 183.195C-0.976402 185.113 -2.05174 186.995 -3.17932 188.841C-3.51557 189.381 -3.64895 189.907 -3.70411 190.487C-3.95521 193.019 -4.22446 195.577 -4.4676 198.153C-4.49229 198.522 -4.49097 198.91 -4.50193 199.482C-4.24033 199.161 -4.07946 199.041 -4.04103 198.875C-1.0808 190.105 2.58792 181.596 5.61046 172.793ZM120.371 118.24C120.363 118.196 120.373 118.125 120.365 118.081C120.258 118.123 120.152 118.165 120.071 118.225C120.053 118.251 120.121 118.376 120.137 118.464C120.21 118.36 120.29 118.3 120.371 118.24Z" fill="#6BB451"/>
</svg>
