<svg width="1174" height="300" viewBox="0 0 1174 300" fill="none" xmlns="http://www.w3.org/2000/svg">
<path opacity="0.04" d="M1141.69 76.423C919.14 150.955 746.773 252.618 624.591 381.411C597.897 409.553 585.591 425.038 585.687 430.543C585.752 434.355 590.052 434.4 596.69 431.773C605.11 428.074 613.166 423.837 620.762 419.112C638.659 408.53 661.83 393.569 703.923 365.686C706.294 364.114 745.841 337.873 758.201 329.703C780.314 315.085 799.209 302.695 817.613 290.78C837.568 277.856 856.312 265.919 874.32 254.674C993.199 180.445 1078.26 137.847 1128.04 132.632C1153.77 129.939 1167.12 130.769 1169.23 134.354C1171.06 137.474 1164.37 144.076 1148.95 153.958C1135.71 162.429 1117.99 172.344 1086.06 189.404C1084.08 190.461 1054.56 206.189 1045.47 211.063C1029.17 219.809 1015.48 227.266 1002.4 234.572C930.289 274.811 883.061 307.027 858.621 336.122C846.194 350.919 842.464 359.043 847.94 361.445C852.565 363.472 863.046 360.151 880.148 352.019C906.317 339.572 938.886 320.876 1010.34 278.263L1011.94 277.309C1115.3 215.668 1150.65 195.924 1165.95 193.857L1165.7 191.17C1149.38 193.377 1115.02 212.569 1009.97 275.216L1008.37 276.17C937.061 318.696 904.522 337.374 878.532 349.735C862.879 357.181 852.906 360.341 849.927 359.034C847.133 357.803 850.417 350.669 861.531 337.425C885.602 308.763 932.54 276.741 1004.26 236.719C1017.31 229.437 1030.98 221.99 1047.27 213.256C1056.35 208.384 1085.86 192.659 1087.84 191.601C1119.86 174.488 1137.65 164.547 1151 155.989C1167.94 145.134 1175.3 137.877 1172.45 133.026C1169.47 127.946 1155.3 127.069 1127.91 129.938C1077.13 135.251 991.763 178.002 872.246 252.634C854.219 263.891 835.456 275.846 815.481 288.778C797.065 300.699 778.159 313.097 756.037 327.721C743.673 335.895 704.125 362.136 701.753 363.706C659.722 391.54 636.587 406.486 618.771 417.019C611.366 421.625 603.518 425.76 595.318 429.377C590.647 431.225 589.21 431.21 589.193 430.223C589.115 425.683 601.444 410.165 627.337 382.863C749.284 254.306 921.513 152.848 1144.02 78.4892L1145.28 78.071L1143.13 22.6642L1141.47 22.7553C1106.23 24.6968 1080.94 28.1221 1056.76 34.5533C1028.45 42.0809 1000.63 54.0255 961.973 74.9523C931.877 91.2455 934.793 89.5305 812.298 162.346C803.073 167.83 793.711 173.691 784.212 179.929C745.625 205.259 705.729 235.989 662.214 272.987C631.039 299.505 534.954 386.621 520.243 398.411C505.01 410.616 496.204 415.31 493.933 413.226C490.86 410.407 494.039 397.651 504.456 374.101C523.356 331.395 599.76 265.146 746.712 156.195C759.757 146.524 773.533 136.376 789.424 124.722C802.607 115.054 849.834 80.5286 859.52 73.428C886.438 53.7006 907.028 38.4879 926.043 24.2319C973.556 -11.3924 1008.17 -38.8329 1033.64 -61.5146C1063.19 -87.8206 1079.77 -107.231 1082.93 -120.276C1086.52 -135.148 1072.89 -141.665 1041.86 -139.411C1000.37 -136.396 948.611 -109.581 885.498 -60.9332C833.493 -20.8472 776.033 31.9478 702.057 105.795C687.972 119.854 673.252 134.703 656.417 151.812C647.584 160.789 638.612 169.935 626.611 182.2L611.852 197.267C605.901 203.342 601.512 207.825 597.215 212.208C573.697 236.199 556.607 253.511 540.203 269.905C498.356 311.722 465.616 342.778 436.993 367.327C368.641 425.944 325.952 444.96 305.65 421.724C296.593 411.361 294.275 399.292 298.247 385.423C304.02 365.264 322.905 341.537 354.186 313.376C379.136 290.916 409.024 267.868 455.758 234.076C464.118 228.032 492.346 207.744 495.836 205.227C511.364 194.023 523.03 185.509 533.813 177.436C560.961 157.117 580.477 141.098 594.568 127.127C628.895 93.0952 629.945 71.2244 591.085 61.4078C532.49 46.6073 487.53 59.4257 443.902 99.1424C420.695 120.267 399.762 146.09 364.896 194.364C360.362 200.639 344.113 223.268 343.811 223.687C335.103 235.79 328.258 245.209 321.389 254.53C303.683 278.536 287.596 299.316 270.943 319.393C262.886 329.107 254.766 338.56 246.582 347.754C212.402 386.114 178.428 410.843 146.933 422.336C120.357 432.039 96.7909 431.676 80.5522 422.84C73.2428 418.839 67.7344 413.225 64.6391 406.621C61.5438 400.017 60.9829 392.682 63.0186 385.432C67.511 369.033 84.1771 354.072 111.333 344.271C166.555 324.341 215.285 275.713 259.084 206.562C273.345 184.041 286.236 160.698 298.926 135.305C305.032 123.096 319.499 92.6399 321.081 89.5612C333.24 65.8623 373.737 29.0979 442.573 -20.7321C460.753 -31.762 472.639 -40.5675 478.232 -47.1484C484.24 -54.2508 483.049 -59.3202 474.594 -61.3692C451.926 -66.858 378.085 -11.9909 300.963 65.6874C285.997 80.684 272.03 96.2222 259.126 112.231C252.528 120.411 234.317 144.241 232.212 146.904C223.68 158.035 213.88 168.624 202.943 178.53C188.046 191.556 171.645 203.528 153.985 214.264C118.086 236.701 73.62 243.97 41.3226 237.932C29.607 235.741 22.9628 231.998 24.0353 229.219C25.3183 225.901 36.4068 222.935 56.077 222.025C98.419 220.06 134.822 206.106 167.07 181.188C194.307 160.133 218.04 131.919 242.017 94.3762C253.584 76.8635 266.891 59.9621 281.807 43.8401C293.201 31.197 330.573 -7.54754 335.992 -13.6715C342.905 -21.485 346.653 -26.7121 347.521 -30.1547C348.684 -34.7666 344.826 -36.4228 337.167 -34.9385C319.082 -31.4337 301.494 -17.9957 274.722 11.4096C259.65 27.9591 186.889 114.859 172.308 131.821C133.444 177.061 77.6214 197.344 31.1246 193.557C14.5619 192.209 3.82693 187.463 4.48215 182.773C5.21397 177.524 19.5303 172.276 46.0346 169.575C106.213 163.445 155.338 127.069 207.185 63.0133C213.529 55.1744 219.811 47.0836 227.223 37.2756C230.378 33.1005 242.176 17.3431 244.928 13.7068C258.299 -3.96408 266.53 -13.7635 273.923 -20.2188C283.658 -28.7189 289.049 -36.1822 289.198 -40.9775C289.368 -46.3048 283.437 -47.5081 275.002 -44.2512C255.388 -36.6755 226.489 -10.0415 197.767 31.0193C154.553 92.7964 95.9353 117.618 21.9142 105.485L20.8458 108.165C96.6818 120.468 156.683 95.1132 200.848 32.1017C229.209 -8.44045 257.609 -34.6173 276.315 -41.8437C282.723 -44.318 285.76 -43.7016 285.666 -40.7616C285.54 -36.8154 280.558 -29.9137 271.387 -21.9048C263.756 -15.24 255.434 -5.33423 241.923 12.5192C239.165 16.1644 227.367 31.9218 224.219 36.0898C216.825 45.8726 210.564 53.9376 204.246 61.7461C152.976 125.078 104.619 160.887 45.9413 166.864C17.7447 169.738 1.97499 175.517 0.963566 182.762C0.035713 189.403 12.2254 194.792 30.3908 196.271C78.2439 200.166 135.499 179.364 175.199 133.161C189.82 116.151 262.533 29.3102 277.546 12.8194C303.769 -15.9933 320.833 -29.0344 337.673 -32.298C343.225 -33.3739 344.641 -32.7664 344.043 -30.4001C343.304 -27.5004 339.73 -22.5039 333.128 -15.0422C327.771 -8.98921 290.416 29.7481 278.968 42.4471C263.934 58.6973 250.522 75.7336 238.865 93.3862C187.495 173.827 133.276 215.722 56.2275 219.296C34.9353 220.284 22.622 223.578 20.642 228.699C18.7555 233.577 26.7557 238.085 40.1426 240.586C73.4826 246.82 119.147 239.354 156.019 216.31C173.867 205.454 190.444 193.35 205.498 180.18C216.589 170.145 226.528 159.416 235.181 148.138C237.313 145.448 255.505 121.63 262.072 113.48C274.907 97.5571 288.799 82.1031 303.684 67.1879C379.329 -8.99519 452.928 -63.6794 473.217 -58.7634C479.416 -57.2616 480.145 -54.1601 475.329 -48.468C470.072 -42.2527 458.441 -33.6714 440.438 -22.7243C371.064 27.4529 330.187 64.6229 317.808 88.7859C316.206 91.9079 301.728 122.376 295.639 134.556C282.987 159.873 270.138 183.138 255.932 205.572C212.511 274.14 164.285 322.273 110.124 341.818C81.8662 352.02 64.3197 367.769 59.5604 385.141C57.3869 392.892 57.9892 400.733 61.3004 407.791C64.6115 414.85 70.5018 420.85 78.3169 425.126C95.5708 434.513 120.455 434.896 148.16 424.782C180.376 413.025 214.873 387.917 249.428 349.132C257.663 339.889 265.808 330.407 273.864 320.685C290.558 300.553 306.68 279.735 324.414 255.688C331.293 246.363 338.142 236.93 346.857 224.818C347.161 224.397 363.408 201.77 367.94 195.499C402.684 147.402 423.522 121.694 446.496 100.774C489.148 61.9472 532.527 49.5771 589.666 64.012C625.823 73.1494 624.876 92.8661 591.858 125.606C577.909 139.436 558.507 155.361 531.486 175.585C520.723 183.641 509.087 192.133 493.564 203.334C490.076 205.849 461.846 226.139 453.481 232.186C406.645 266.053 376.671 289.167 351.597 311.74C319.923 340.254 300.729 364.37 294.789 385.119C290.622 399.677 293.062 412.468 302.643 423.417C324.911 448.898 369.58 429.013 439.503 369.038C468.209 344.42 501.006 313.307 542.918 271.423C559.333 255.019 576.432 237.7 599.958 213.706C604.255 209.33 608.65 204.839 614.597 198.763L629.355 183.696C641.358 171.441 650.327 162.305 659.159 153.323C675.988 136.22 690.709 121.377 704.777 107.328C778.65 33.5826 836.006 -19.1312 887.858 -59.0988C950.359 -107.273 1001.46 -133.753 1041.82 -136.685C1070.94 -138.801 1082.53 -133.267 1079.44 -120.487C1076.46 -108.141 1060.15 -89.0604 1031.07 -63.162C1005.69 -40.5656 971.148 -13.1801 923.712 22.386C904.711 36.6333 884.131 51.8384 857.223 71.5577C847.546 78.6506 800.313 113.183 787.125 122.854C771.227 134.512 757.448 144.664 744.398 154.338C596.837 263.736 520.322 330.072 501.141 373.475C490.177 398.287 486.938 411.244 491.149 415.108C495.651 419.24 505.406 414.042 522.686 400.193C537.503 388.318 633.632 301.144 664.741 274.7C708.141 237.796 747.919 207.157 786.351 181.929C795.8 175.726 805.109 169.898 814.279 164.443C936.679 91.6833 933.791 93.3829 963.809 77.1323C1002.18 56.3588 1029.7 44.5448 1057.6 37.1263C1081.06 30.8898 1105.62 27.5133 1139.7 25.5737L1141.69 76.423Z" fill="#6BB451"/>
</svg>
