<svg width="32" height="25" viewBox="0 0 32 25" fill="none" xmlns="http://www.w3.org/2000/svg">
<path d="M30.0152 4.84052C29.8959 4.62903 29.6281 4.55442 29.4169 4.67367C29.2058 4.79268 29.131 5.06048 29.2502 5.27173C29.7801 6.21152 30.0614 7.2788 30.0632 8.35821C30.0687 11.2359 28.415 14.4373 25.1487 17.8733C22.4893 20.6707 19.5051 22.8071 18.3456 23.5956C18.1517 23.7276 17.9011 23.7276 17.707 23.5956C16.6791 22.8966 14.1804 21.1127 11.7604 18.7421H15.8572V20.5215C15.8572 21.0863 16.3168 21.5459 16.8817 21.5459H17.8382C18.4033 21.5459 18.8629 21.0863 18.8629 20.5215V20.4844C18.9107 20.4913 18.9595 20.4961 19.0091 20.4961H19.9656C20.5305 20.4961 20.9901 20.0365 20.9901 19.4716V14.4604C20.9901 13.8956 20.5305 13.436 19.9656 13.436H19.0091C18.9595 13.436 18.9107 13.4408 18.8629 13.4479V13.4106C18.8629 12.8457 18.4033 12.3861 17.8382 12.3861H16.8817C16.3168 12.3861 15.8572 12.8457 15.8572 13.4106V15.1466H14.4729C14.2303 15.1466 14.0337 15.3432 14.0337 15.5856C14.0337 15.8282 14.2303 16.0248 14.4729 16.0248H15.8572V17.8641H6.07455V16.0248H12.4869C12.7295 16.0248 12.9261 15.8282 12.9261 15.5856C12.9261 15.3432 12.7295 15.1466 12.4869 15.1466H8.61857C6.87014 12.728 5.98551 10.4449 5.9894 8.35844C5.99581 4.86295 8.84333 2.02275 12.3388 2.02275H12.3477C14.2791 2.02527 16.0813 2.89273 17.2923 4.40244C17.4717 4.62629 17.7393 4.75446 18.0263 4.75446C18.3133 4.75446 18.5809 4.62606 18.7603 4.40244C19.9714 2.89273 21.7736 2.0255 23.7049 2.02275H23.7138C25.3368 2.02275 26.8836 2.64073 28.0708 3.76363C28.2468 3.93026 28.5249 3.92247 28.6915 3.74646C28.8582 3.57022 28.8504 3.29236 28.6741 3.12574C27.3233 1.84766 25.5623 1.14453 23.7138 1.14453C23.7106 1.14453 23.7069 1.14453 23.7035 1.14453C21.5051 1.14751 19.4536 2.13468 18.0753 3.85312C18.0503 3.88402 18.0021 3.88402 17.9773 3.85312C16.599 2.1349 14.5475 1.14774 12.3491 1.14453C12.3455 1.14453 12.3425 1.14453 12.3388 1.14453C8.36016 1.14453 5.11851 4.37795 5.11118 8.35684C5.10729 10.4802 5.926 12.7612 7.54603 15.1466H6.07455V13.4103C6.07455 12.8454 5.61495 12.3858 5.05007 12.3858H4.09334C3.52846 12.3858 3.06887 12.8454 3.06887 13.4103V13.4476C3.02103 13.4408 2.97228 13.436 2.92261 13.436H1.96588C1.401 13.436 0.941406 13.8956 0.941406 14.4604V19.4714C0.941406 20.0362 1.401 20.4958 1.96588 20.4958H2.92261C2.97228 20.4958 3.02103 20.491 3.06887 20.4842V20.5215C3.06887 21.0863 3.52846 21.5459 4.09334 21.5459H5.05007C5.61495 21.5459 6.07455 21.0863 6.07455 20.5215V18.7421H10.5215C13.1752 21.4736 16.076 23.5484 17.2131 24.3218C17.4601 24.4898 17.7432 24.5738 18.0261 24.5738C18.3092 24.5738 18.5923 24.4898 18.8393 24.3218C20.0224 23.5173 23.0672 21.3372 25.785 18.4782C29.2122 14.8731 30.9472 11.4676 30.9415 8.35661C30.9392 7.12682 30.6187 5.911 30.0152 4.84052ZM19.0091 14.3142H19.9659C20.0464 14.3142 20.1121 14.3799 20.1121 14.4604V19.4714C20.1121 19.5522 20.0464 19.6178 19.9659 19.6178H19.0091C18.9286 19.6178 18.8629 19.5522 18.8629 19.4714V14.4604C18.8629 14.3799 18.9286 14.3142 19.0091 14.3142ZM16.7354 13.4103C16.7354 13.3298 16.8009 13.2641 16.8817 13.2641H17.8382C17.919 13.2641 17.9847 13.3298 17.9847 13.4103V20.5215C17.9847 20.602 17.919 20.6677 17.8382 20.6677H16.8817C16.8009 20.6677 16.7354 20.602 16.7354 20.5215V13.4103ZM5.19633 20.5215C5.19633 20.6023 5.13064 20.668 5.05007 20.668H4.09334C4.01278 20.668 3.94709 20.6023 3.94709 20.5215V17.0496C3.94709 16.8072 3.75048 16.6106 3.50786 16.6106C3.26548 16.6106 3.06887 16.8072 3.06887 17.0496V19.4714C3.06887 19.5522 3.00318 19.6178 2.92238 19.6178H1.96588C1.88532 19.6178 1.81963 19.5522 1.81963 19.4714V14.4604C1.81963 14.3799 1.88532 14.3142 1.96588 14.3142H2.92261C3.00318 14.3142 3.06887 14.3799 3.06887 14.4604V14.9999C3.06887 15.2425 3.26548 15.4389 3.50809 15.4389C3.75048 15.4389 3.94709 15.2425 3.94709 14.9999V13.4103C3.94709 13.3298 4.01278 13.2641 4.09357 13.2641H5.05007C5.13064 13.2641 5.19633 13.3298 5.19633 13.4103V20.5215Z" fill="#223241" stroke="#223241" stroke-width="0.8"/>
</svg>
