<svg width="26" height="25" viewBox="0 0 26 25" fill="none" xmlns="http://www.w3.org/2000/svg">
<g clip-path="url(#clip0)">
<path d="M25.0281 4.77689C24.8315 4.53254 24.4978 4.44591 24.2072 4.56382C24.1609 4.58252 24.1152 4.60085 24.0698 4.6188C24.2525 4.30392 24.4023 3.96961 24.5206 3.61419C24.6096 3.34615 24.5317 3.05089 24.3219 2.86189C24.1124 2.6727 23.8106 2.62569 23.5533 2.74194C23.55 2.74342 23.5326 2.75156 23.503 2.76637C22.3756 3.33189 21.4965 3.66362 21.0969 3.74155C21.0689 3.71711 21.0393 3.69101 21.0138 3.66824C20.5188 3.22953 19.4888 2.32617 17.4068 2.32617C16.2736 2.32617 14.6518 2.771 13.4989 4.04588C12.5894 5.05197 12.1363 6.36942 12.1468 7.97121C8.81534 7.56322 6.08344 6.06306 3.81524 3.4015C3.65752 3.21638 3.41595 3.12494 3.17493 3.15881C2.9341 3.19269 2.72733 3.34763 2.62681 3.56921C2.31971 4.24672 1.91801 5.29113 1.97355 6.5338C2.0102 7.34923 2.23696 8.12078 2.65088 8.84217C2.22734 8.82069 1.87729 9.1737 1.90543 9.5991C2.02316 11.3777 2.67605 12.7545 3.85282 13.7151C3.62902 13.8947 3.53516 14.191 3.61439 14.4665C3.98462 15.7512 5.06809 17.1469 6.72411 17.8159C5.22747 18.5708 3.51554 18.8877 1.69106 18.7374C1.36267 18.7106 1.05816 18.9131 0.956534 19.2268C0.854907 19.5406 0.98245 19.8831 1.26475 20.0539C3.62846 21.485 6.19117 22.2105 8.88161 22.2105C14.6753 22.2105 18.0364 19.3331 19.8357 16.9194C22.0556 13.9413 22.8432 10.4482 22.8432 8.3618C22.8432 8.08838 22.8351 8.03285 22.8434 7.95566C23.1198 7.71186 23.8827 7.34312 25.0605 5.62434C25.2381 5.36574 25.2247 5.02124 25.0281 4.77689ZM21.4193 8.13633C21.4205 8.18557 21.4218 8.25147 21.4218 8.3618C21.4218 10.2307 20.7078 13.3706 18.696 16.0697C17.091 18.2226 14.0857 20.789 8.8818 20.789C7.3722 20.789 5.90591 20.535 4.4985 20.0315C6.14767 19.7439 7.66801 19.0804 8.9875 18.0617C9.22278 17.8801 9.32033 17.5714 9.23185 17.2878C9.14355 17.004 8.88809 16.8052 8.59135 16.7893C7.17209 16.7132 6.05197 15.9344 5.42814 15.0109C5.67267 14.9952 5.96385 14.9566 6.39739 14.8804C6.72041 14.8236 6.96254 14.5531 6.98346 14.2256C7.00438 13.8984 6.79872 13.5992 6.4855 13.5017C4.85613 12.9943 3.88744 12.0687 3.50166 10.6267C3.75638 10.692 4.06163 10.7431 4.5668 10.8064C4.87909 10.8458 5.1799 10.6748 5.30633 10.3864C5.43258 10.0982 5.35428 9.76107 5.11381 9.558C3.30007 8.02693 3.20474 6.46475 3.53868 5.20413C6.03679 7.74481 9.11134 9.20925 12.8527 9.466C13.2929 9.49617 13.6525 9.12224 13.6085 8.68556C13.4497 7.10895 13.7675 5.86887 14.5535 4.99958C15.3952 4.06865 16.6166 3.7384 17.4068 3.7384C18.9496 3.7384 19.6243 4.33632 20.0708 4.73209C20.3313 4.96293 20.5771 5.18099 20.9481 5.18099C21.2076 5.18099 21.5432 5.10732 21.9143 4.9894C21.7827 5.10102 21.642 5.20857 21.4919 5.31224C21.2279 5.49476 21.1191 5.83148 21.2261 6.13396C21.3331 6.43643 21.6293 6.62988 21.9495 6.60581C22.0724 6.59655 22.1966 6.58378 22.322 6.56731C21.8294 6.94142 21.3999 7.1693 21.4193 8.13633Z" fill="white"/>
</g>
<defs>
<clipPath id="clip0">
<rect width="24.2632" height="24.2632" fill="white" transform="translate(0.921875 0.146484)"/>
</clipPath>
</defs>
</svg>
