<svg width="25" height="25" viewBox="0 0 25 25" fill="none" xmlns="http://www.w3.org/2000/svg">
<g clip-path="url(#clip0)">
<path d="M18.0781 0.146484H6.95063C3.32907 0.146484 0.382812 3.09275 0.382812 6.7143V17.842C0.382812 21.4634 3.32907 24.4096 6.95063 24.4096H18.0783C21.6997 24.4096 24.646 21.4634 24.646 17.842V6.7143C24.646 3.09275 21.6997 0.146484 18.0781 0.146484V0.146484ZM23.2236 17.842C23.2236 20.679 20.9154 22.9872 18.0781 22.9872H6.95063C4.1134 22.9872 1.80522 20.679 1.80522 17.842V6.7143C1.80522 3.87707 4.1134 1.56889 6.95063 1.56889H18.0783C20.9154 1.56889 23.2236 3.87707 23.2236 6.7143V17.842Z" fill="white"/>
<path d="M12.5132 5.64355C8.85497 5.64355 5.87891 8.61962 5.87891 12.2778C5.87891 15.936 8.85497 18.9121 12.5132 18.9121C16.1714 18.9121 19.1474 15.936 19.1474 12.2778C19.1474 8.61962 16.1714 5.64355 12.5132 5.64355ZM12.5132 17.4897C9.63948 17.4897 7.30132 15.1517 7.30132 12.2778C7.30132 9.40413 9.63948 7.06596 12.5132 7.06596C15.3871 7.06596 17.725 9.40413 17.725 12.2778C17.725 15.1517 15.3871 17.4897 12.5132 17.4897Z" fill="white"/>
<path d="M19.308 3.28809C18.2269 3.28809 17.3477 4.16756 17.3477 5.24843C17.3477 6.32949 18.2269 7.20897 19.308 7.20897C20.3891 7.20897 21.2685 6.32949 21.2685 5.24843C21.2685 4.16737 20.3891 3.28809 19.308 3.28809ZM19.308 5.78637C19.0115 5.78637 18.7701 5.54499 18.7701 5.24843C18.7701 4.9517 19.0115 4.7105 19.308 4.7105C19.6047 4.7105 19.8461 4.9517 19.8461 5.24843C19.8461 5.54499 19.6047 5.78637 19.308 5.78637Z" fill="white"/>
</g>
<defs>
<clipPath id="clip0">
<rect width="24.2632" height="24.2632" fill="white" transform="translate(0.382812 0.146484)"/>
</clipPath>
</defs>
</svg>
