<svg width="25" height="25" viewBox="0 0 25 25" fill="none" xmlns="http://www.w3.org/2000/svg">
<g clip-path="url(#clip0)">
<path d="M15.8644 11.1879L10.5041 8.25499C10.1959 8.08635 9.83157 8.09265 9.52946 8.27165C9.22717 8.45084 9.04688 8.76738 9.04688 9.11873V14.9342C9.04688 15.2839 9.22606 15.5999 9.52632 15.7793C9.68311 15.8729 9.85693 15.92 10.0311 15.92C10.1907 15.92 10.3506 15.8805 10.4978 15.8013L15.8583 12.9189C16.1765 12.7477 16.3751 12.4169 16.3766 12.0554C16.3779 11.6938 16.1817 11.3616 15.8644 11.1879ZM10.4687 14.2027V9.85622L14.4749 12.0483L10.4687 14.2027Z" fill="white"/>
<path d="M24.0847 7.42234L24.0835 7.41123C24.063 7.21594 23.8584 5.47884 23.014 4.5953C22.0379 3.55607 20.9313 3.42983 20.3991 3.36929C20.355 3.3643 20.3146 3.35967 20.2785 3.35486L20.2362 3.35041C17.0285 3.11717 12.1843 3.08533 12.1358 3.08515L12.1315 3.08496L12.1273 3.08515C12.0788 3.08533 7.23458 3.11717 3.99807 3.35041L3.9553 3.35486C3.92087 3.35948 3.88293 3.36374 3.84165 3.36855C3.31555 3.42927 2.2208 3.5557 1.24192 4.6325C0.437607 5.50661 0.205105 7.2065 0.181225 7.39753L0.178449 7.42234C0.171229 7.5036 0 9.43822 0 11.3804V13.196C0 15.1382 0.171229 17.0728 0.178449 17.1543L0.179744 17.1665C0.200292 17.3586 0.404656 19.0639 1.24525 19.9478C2.16304 20.9522 3.32351 21.0851 3.94771 21.1566C4.04638 21.1679 4.13135 21.1775 4.18929 21.1877L4.24538 21.1955C6.09743 21.3717 11.9042 21.4585 12.1504 21.462L12.1578 21.4622L12.1652 21.462C12.2137 21.4618 17.0578 21.43 20.2654 21.1968L20.3078 21.1923C20.3483 21.187 20.3939 21.1821 20.4439 21.177C20.967 21.1214 22.0558 21.0061 23.0212 19.9439C23.8255 19.0696 24.0582 17.3697 24.0819 17.1789L24.0847 17.1541C24.0919 17.0726 24.2633 15.1382 24.2633 13.196V11.3804C24.2631 9.43822 24.0919 7.50379 24.0847 7.42234ZM22.8412 13.196C22.8412 14.9936 22.6843 16.8449 22.6695 17.0149C22.6091 17.483 22.3638 18.5585 21.972 18.9845C21.3678 19.6492 20.7471 19.7151 20.2939 19.7631C20.2391 19.7688 20.1884 19.7744 20.1425 19.7801C17.04 20.0045 12.3787 20.0389 12.1639 20.0402C11.9231 20.0367 6.20128 19.9491 4.40568 19.7823C4.31368 19.7673 4.21428 19.7558 4.1095 19.744C3.57804 19.6831 2.85055 19.5998 2.29114 18.9845L2.278 18.9704C1.89296 18.5693 1.65472 17.5636 1.59419 17.0204C1.5829 16.892 1.42185 15.0188 1.42185 13.196V11.3804C1.42185 9.58482 1.57846 7.73555 1.59364 7.5621C1.66564 7.01065 1.91555 6.0003 2.29114 5.59194C2.91386 4.90703 3.57046 4.83113 4.00473 4.78096C4.04619 4.77615 4.08488 4.77171 4.12061 4.76708C7.26827 4.54161 11.9631 4.50811 12.1315 4.50681C12.3 4.50792 16.9932 4.54161 20.1129 4.76708C20.1512 4.77189 20.193 4.77671 20.238 4.78189C20.6847 4.8328 21.3598 4.9098 21.9794 5.57065L21.9851 5.57676C22.3701 5.9779 22.6084 7.00121 22.6689 7.55525C22.6796 7.6765 22.8412 9.55373 22.8412 11.3804V13.196Z" fill="white"/>
</g>
<defs>
<clipPath id="clip0">
<rect width="24.2632" height="24.2631" fill="white" transform="translate(0 0.146484)"/>
</clipPath>
</defs>
</svg>
