<svg width="25" height="25" viewBox="0 0 25 25" fill="none" xmlns="http://www.w3.org/2000/svg">
<g clip-path="url(#clip0)">
<path d="M14.23 24.3618H10.3369C9.6866 24.3618 9.15762 23.8339 9.15762 23.1849V14.4209H6.88629C6.23601 14.4209 5.70703 13.8927 5.70703 13.2439V9.48851C5.70703 8.83951 6.23601 8.31156 6.88629 8.31156H9.15762V6.431C9.15762 4.56635 9.74428 2.97992 10.854 1.84351C11.9687 0.701918 13.5265 0.0986328 15.359 0.0986328L18.3281 0.103446C18.9773 0.104556 19.5053 0.6325 19.5053 1.2804V4.7672C19.5053 5.4162 18.9765 5.94415 18.3264 5.94415L16.3274 5.94489C15.7177 5.94489 15.5625 6.06688 15.5293 6.10427C15.4746 6.16628 15.4095 6.34159 15.4095 6.82566V8.31138H18.1762C18.3845 8.31138 18.5863 8.36265 18.7597 8.45928C19.1338 8.66791 19.3664 9.06238 19.3664 9.4887L19.3649 13.2441C19.3649 13.8927 18.8359 14.4207 18.1857 14.4207H15.4095V23.1849C15.4095 23.8339 14.8803 24.3618 14.23 24.3618ZM10.5828 22.9394H13.9841V13.7841C13.9841 13.3507 14.3374 12.9983 14.7714 12.9983H17.9397L17.941 9.73398H14.7712C14.3372 9.73398 13.9841 9.38152 13.9841 8.94817V6.82566C13.9841 6.26995 14.0406 5.63797 14.4609 5.16297C14.9688 4.58875 15.7691 4.52248 16.327 4.52248L18.0801 4.52173V1.52549L15.3579 1.52104C12.4129 1.52104 10.5828 3.40254 10.5828 6.431V8.94817C10.5828 9.38133 10.2297 9.73398 9.79566 9.73398H7.13223V12.9983H9.79566C10.2297 12.9983 10.5828 13.3507 10.5828 13.7841V22.9394ZM18.3253 1.52586H18.3255H18.3253Z" fill="white"/>
</g>
<defs>
<clipPath id="clip0">
<rect width="24.2632" height="24.2632" fill="white" transform="translate(0.460938 0.146484)"/>
</clipPath>
</defs>
</svg>
