<svg width="135" height="44" viewBox="0 0 135 44" fill="none" xmlns="http://www.w3.org/2000/svg">
<path d="M5.62211 16.8784V21.4899L0 25.603V16.8784C0 15.3262 1.25885 14.0674 2.81106 14.0674C3.58666 14.0674 4.29093 14.3818 4.79929 14.8902C5.30765 15.3996 5.62211 16.1028 5.62211 16.8784Z" fill="white"/>
<path d="M13.3712 12.19V15.8218L7.74609 19.9369V12.19C7.74609 10.6378 9.00494 9.37891 10.5572 9.37891C11.3358 9.37891 12.039 9.69337 12.5474 10.2017C13.0568 10.7101 13.3712 11.4134 13.3712 12.19Z" fill="white"/>
<path d="M21.1202 7.49953V19.9353L15.4961 15.8202V7.49953C15.4961 5.94732 16.7549 4.68848 18.3092 4.68848C19.0848 4.68848 19.789 5.00294 20.2974 5.5113C20.8058 6.02066 21.1202 6.72393 21.1202 7.49953Z" fill="white"/>
<path d="M28.8634 2.81106V25.6049L23.2383 21.4898V2.81106C23.2383 1.25885 24.4971 0 26.0513 0C26.8269 0 27.5312 0.314461 28.0396 0.822822C28.5489 1.33219 28.8634 2.03545 28.8634 2.81106Z" fill="white"/>
<path d="M18.1126 30.0882H14.9258V26.9014C16.686 26.9014 18.1126 28.328 18.1126 30.0882Z" fill="white"/>
<path d="M13.9329 30.0882H10.7461C10.7461 28.328 12.1727 26.9014 13.9329 26.9014V30.0882Z" fill="white"/>
<path d="M18.1126 31.084H14.9258V34.2708H18.1126V31.084Z" fill="white"/>
<path d="M13.9329 31.084H10.7461V34.2708H13.9329V31.084Z" fill="white"/>
<path d="M14.432 17.5355L26.8547 26.6247V38.753C26.8547 40.1817 25.6923 41.3441 24.2627 41.3441H4.60037C3.17173 41.3451 2.00933 40.1827 2.00933 38.753V26.6227L14.432 17.5355ZM14.432 15.0449L0 25.603V38.753C0 41.2938 2.05957 43.3534 4.60037 43.3534H24.2627C26.8035 43.3534 28.8641 41.2938 28.8641 38.753V25.605L14.432 15.0449Z" fill="white"/>
<path d="M51.2756 38.1462L50.0369 34.7022H45.2959L44.0822 38.1462H41.9453L46.5859 25.6943H48.7901L53.4307 38.1462H51.2756ZM49.5034 32.9551L48.341 29.5794C48.2566 29.3533 48.1391 28.9977 47.9894 28.5104C47.8397 28.0242 47.7352 27.6675 47.6789 27.4414C47.5262 28.1367 47.3032 28.8982 47.0098 29.723L45.8896 32.9551H49.5034Z" fill="white"/>
<path d="M59.0064 38.1457H56.979V27.4832H53.332V25.7441H62.6543V27.4832H59.0074V38.1457H59.0064Z" fill="white"/>
<path d="M52.2763 18.8098H49.7908L43.6924 8.92791H43.6251L43.6673 9.47947C43.7467 10.5314 43.7859 11.4928 43.7859 12.3639V18.8108H41.9453V6.4082H44.4057L50.487 16.2389H50.5382C50.5262 16.1083 50.5041 15.6351 50.4699 14.8183C50.4357 14.0015 50.4197 13.3635 50.4197 12.9054V6.4082H52.2773V18.8098H52.2763Z" fill="white"/>
<path d="M60.9052 18.8088H53.8906V6.40723H60.9052V8.12119H55.918V11.4969H60.5917V13.1937H55.918V17.0868H60.9052V18.8088Z" fill="white"/>
<path d="M75.0651 18.8088H72.8609L70.7561 11.4125C70.6657 11.09 70.5532 10.6248 70.4175 10.017C70.2819 9.40917 70.2005 8.98621 70.1714 8.7491C70.1151 9.11078 70.0227 9.57996 69.8961 10.1566C69.7685 10.7333 69.663 11.1633 69.5786 11.4456L67.5261 18.8078H65.3208L63.7174 12.599L62.0898 6.40723H64.1595L65.9317 13.6338C66.209 14.7932 66.4069 15.8169 66.5265 16.7051C66.5877 16.2248 66.6812 15.6873 66.8068 15.0936C66.9303 14.4998 67.0449 14.0196 67.1453 13.6519L69.1647 6.40823H71.175L73.2446 13.686C73.4426 14.3592 73.6515 15.3658 73.8726 16.7061C73.957 15.8973 74.1609 14.8685 74.4834 13.6187L76.2476 6.40924H78.3001L75.0651 18.8088Z" fill="white"/>
<path d="M91.9719 15.3678C91.9719 16.4408 91.5851 17.2827 90.8095 17.8925C90.0339 18.5024 88.9639 18.8078 87.5996 18.8078C86.2352 18.8078 85.119 18.5958 84.25 18.1728V16.3082C84.8006 16.5674 85.3853 16.7703 86.0031 16.919C86.622 17.0677 87.1977 17.1421 87.7322 17.1421C88.5128 17.1421 89.0895 16.9934 89.4612 16.696C89.8329 16.3996 90.0178 15.9998 90.0178 15.4994C90.0178 15.0483 89.847 14.6666 89.5064 14.3521C89.1648 14.0386 88.4616 13.6669 87.3936 13.2389C86.2935 12.7929 85.5179 12.2845 85.0668 11.7128C84.6157 11.1412 84.3907 10.453 84.3907 9.65026C84.3907 8.64358 84.7483 7.85191 85.4636 7.27423C86.179 6.69654 87.1394 6.4082 88.344 6.4082C89.4984 6.4082 90.6487 6.66138 91.792 7.16773L91.1651 8.7762C90.0921 8.32511 89.1357 8.10006 88.2938 8.10006C87.6558 8.10006 87.1716 8.23871 86.841 8.517C86.5115 8.79429 86.3467 9.16199 86.3467 9.61811C86.3467 9.93157 86.412 10.1998 86.5447 10.4228C86.6763 10.6459 86.8943 10.8559 87.1967 11.0538C87.4991 11.2517 88.0436 11.5139 88.8303 11.8374C89.7164 12.2061 90.3654 12.5497 90.7783 12.8682C91.1912 13.1877 91.4926 13.5474 91.6855 13.9492C91.8754 14.3501 91.9719 14.8233 91.9719 15.3678Z" fill="white"/>
<path d="M102.974 18.8079H100.624L96.7308 13.1928L95.5342 14.1683V18.8079H93.5078V6.40625H95.5342V12.3267C96.0888 11.6486 96.6404 10.9956 97.1879 10.3676L100.539 6.40625H102.846C100.68 8.95107 99.1279 10.7635 98.1896 11.8435L102.974 18.8079Z" fill="white"/>
<path d="M104.281 18.8071V9.2959H106.308V18.8071H104.281Z" fill="white"/>
<path d="M108.309 18.8079V6.40625H110.335V17.0688H115.585V18.8079H108.309Z" fill="white"/>
<path d="M117.41 18.8079V6.40625H119.437V17.0688H124.687V18.8079H117.41Z" fill="white"/>
<path d="M134.003 15.3668C134.003 16.4398 133.616 17.2817 132.841 17.8916C132.065 18.5014 130.995 18.8068 129.631 18.8068C128.266 18.8068 127.15 18.5948 126.281 18.1719V16.3072C126.832 16.5664 127.417 16.7694 128.034 16.918C128.653 17.0667 129.229 17.1411 129.763 17.1411C130.544 17.1411 131.121 16.9924 131.492 16.695C131.864 16.3986 132.049 15.9988 132.049 15.4984C132.049 15.0474 131.878 14.6656 131.538 14.3511C131.196 14.0377 130.493 13.6659 129.425 13.238C128.325 12.7919 127.549 12.2835 127.098 11.7119C126.647 11.1402 126.422 10.452 126.422 9.64928C126.422 8.64261 126.78 7.85093 127.495 7.27325C128.21 6.69557 129.171 6.40723 130.375 6.40723C131.53 6.40723 132.68 6.6604 133.823 7.16675L133.196 8.77522C132.123 8.32413 131.167 8.09908 130.325 8.09908C129.687 8.09908 129.203 8.23773 128.872 8.51602C128.543 8.79331 128.378 9.16102 128.378 9.61713C128.378 9.93059 128.443 10.1988 128.576 10.4219C128.709 10.6449 128.926 10.8549 129.228 11.0528C129.53 11.2507 130.075 11.5129 130.862 11.8364C131.748 12.2052 132.397 12.5488 132.81 12.8672C133.222 13.1867 133.524 13.5464 133.717 13.9483C133.908 14.3491 134.003 14.8223 134.003 15.3668Z" fill="white"/>
<path d="M106.284 8.43266H104.258C104.258 7.31346 105.165 6.40625 106.284 6.40625V8.43266Z" fill="white"/>
<path d="M79.0372 38.1457H77.0018V32.5558H71.2842V38.1457H69.2578V25.7441H71.2842V30.8167H77.0018V25.7441H79.0372V38.1457Z" fill="white"/>
<path d="M91.9691 31.9409C91.9691 33.902 91.4799 35.4261 90.4983 36.5142C89.5177 37.6022 88.1293 38.1457 86.3329 38.1457C84.5145 38.1457 83.118 37.6062 82.1425 36.5262C81.168 35.4472 80.6797 33.9131 80.6797 31.9238C80.6797 29.9346 81.17 28.4085 82.1505 27.3426C83.1321 26.2766 84.5306 25.7441 86.349 25.7441C88.1393 25.7441 89.5238 26.2857 90.5013 27.3677C91.4798 28.4497 91.9691 29.9748 91.9691 31.9409ZM82.7734 31.9409C82.7734 33.4238 83.0728 34.549 83.6716 35.3156C84.2704 36.0822 85.1575 36.4649 86.3329 36.4649C87.5034 36.4649 88.3865 36.0862 88.9822 35.3287C89.578 34.5701 89.8764 33.4419 89.8764 31.9419C89.8764 30.4641 89.581 29.3439 88.9903 28.5803C88.3995 27.8168 87.5195 27.435 86.35 27.435C85.1685 27.435 84.2774 27.8168 83.6756 28.5803C83.0738 29.3429 82.7734 30.4631 82.7734 31.9409Z" fill="white"/>
<path d="M98.901 38.1457L95.3043 27.7886H95.2359C95.3324 29.3268 95.3796 30.7685 95.3796 32.1147V38.1457H93.5391V25.7441H96.3973L99.8413 35.609H99.8926L103.438 25.7441H106.305V38.1457H104.354V32.0133C104.354 31.3974 104.369 30.5937 104.401 29.6051C104.432 28.6155 104.459 28.0157 104.482 27.8067H104.414L100.689 38.1467H98.901V38.1457Z" fill="white"/>
<path d="M115.319 38.1457H108.305V25.7441H115.319V27.4581H110.332V30.8338H115.006V32.5307H110.332V36.4237H115.319V38.1457Z" fill="white"/>
<path d="M119.437 38.1456H117.41C117.41 37.0264 118.317 36.1191 119.437 36.1191V38.1456Z" fill="white"/>
</svg>
