<svg width="32" height="32" viewBox="0 0 32 32" fill="none" xmlns="http://www.w3.org/2000/svg">
<path d="M22.3693 6.20877L26.8178 10.3609M28 17.8049V29.6797C28 30.301 27.4963 30.8047 26.875 30.8047M26.6466 30.8046L2.125 30.8047C1.50368 30.8047 1 30.301 1 29.6797V4.92969C1 4.30837 1.50368 3.80469 2.125 3.80469H14.2655M30.6932 5.3616L27.726 2.59197C27.3156 2.20893 26.6502 2.20893 26.2399 2.59197L11.1199 16.7049C9.80822 17.9292 8.96806 19.5245 8.73068 21.2417L8.50335 22.8861C8.47002 23.1273 8.69007 23.3327 8.94845 23.3016L10.7102 23.0894C12.5499 22.8678 14.2591 22.0836 15.5708 20.8593L30.6932 6.74414C31.1023 6.36236 31.1023 5.74338 30.6932 5.3616Z" stroke="#223242" stroke-width="2" stroke-linecap="round" stroke-linejoin="round"/>
</svg>
