<svg width="32" height="31" viewBox="0 0 32 31" fill="none" xmlns="http://www.w3.org/2000/svg">
<path d="M16 6.1933L17.5873 4.60604C19.0608 3.13257 21.0592 2.30478 23.143 2.30478C25.2268 2.30478 27.2253 3.13257 28.6987 4.60604C30.1722 6.07951 31 8.07796 31 10.1618C31 12.2456 30.1722 14.244 28.6987 15.7175L16.7936 27.6226C16.3553 28.0609 15.6446 28.0609 15.2063 27.6226L11.2379 23.6542C11.2264 23.6427 11.215 23.6312 11.2036 23.6197L3.30126 15.7174C1.82779 14.2439 1 12.2455 1 10.1617C1 8.07786 1.82779 6.07941 3.30125 4.60594C4.77472 3.13247 6.77318 2.30469 8.85698 2.30469C10.9408 2.30469 12.9392 3.13248 14.4127 4.60594L16 6.1933ZM16 6.1933L21.5555 11.7491" stroke="#223242" stroke-width="2" stroke-linecap="round" stroke-linejoin="round"/>
</svg>
