<svg width="32" height="31" viewBox="0 0 32 31" fill="none" xmlns="http://www.w3.org/2000/svg">
<path d="M20.2857 8.0904V7.01897C20.2857 5.24377 18.8466 3.80469 17.0714 3.80469H14.9286C13.1534 3.80469 11.7143 5.24377 11.7143 7.01897V8.0904M3.10248 8.09115H28.8975C28.8841 8.09065 28.8707 8.0904 28.8571 8.0904H3.14286C3.12934 8.0904 3.11587 8.09065 3.10248 8.09115ZM29.9286 17.8871L23.8792 18.7513C18.6529 19.4979 13.3471 19.4979 8.12081 18.7513L2.07143 17.8871V26.3047C2.07143 26.8964 2.55112 27.3761 3.14286 27.3761H28.8571C29.4489 27.3761 29.9286 26.8964 29.9286 26.3047V17.8871ZM13.3214 19.246V20.9473C13.3214 21.5391 13.8011 22.0188 14.3929 22.0188H17.6071C18.1989 22.0188 18.6786 21.5391 18.6786 20.9473V19.246C16.8939 19.3319 15.1061 19.3319 13.3214 19.246ZM23.8792 18.7505L30.0801 17.8647C30.6079 17.7893 31 17.3372 31 16.804V9.16183C31 8.5701 30.5203 8.0904 29.9286 8.0904H2.07143C1.47969 8.0904 1 8.5701 1 9.16183V16.804C1 17.3372 1.39207 17.7893 1.9199 17.8647L8.12081 18.7505C13.3471 19.4971 18.6529 19.4971 23.8792 18.7505Z" stroke="#223242" stroke-width="2" stroke-linecap="round" stroke-linejoin="round"/>
</svg>
