<svg width="30" height="32" viewBox="0 0 30 32" fill="none" xmlns="http://www.w3.org/2000/svg">
<path d="M27.4885 18.6663H28.4885V18.6662L27.4885 18.6663ZM2.51148 18.6663L1.51148 18.6662V18.6663H2.51148ZM1.51037 2.36304L0.532633 2.57287L1.51037 2.36304ZM2.29056 1.89291L2.84468 1.06048V1.06048L2.29056 1.89291ZM28.4896 2.36304L29.4674 2.57287L28.4896 2.36304ZM27.7094 1.89291L27.1553 1.06048V1.06048L27.7094 1.89291ZM20.0992 6.95879L20.6533 7.79122L20.0992 6.95879ZM19.887 6.96912L20.349 6.08225L19.887 6.96912ZM26.2551 12.7753L27.2328 12.9851L26.2551 12.7753ZM26.2739 12.9118L25.3874 13.3744L26.2739 12.9118ZM9.90082 6.95879L9.3467 7.79122L9.90082 6.95879ZM10.113 6.96912L10.575 7.85599L10.113 6.96912ZM26.4885 18.6663C26.4885 24.4765 21.4125 29.3047 15 29.3047V31.3047C22.3819 31.3047 28.4885 25.7115 28.4885 18.6663H26.4885ZM15 29.3047C8.5875 29.3047 3.51148 24.4765 3.51148 18.6663H1.51148C1.51148 25.7115 7.61806 31.3047 15 31.3047V29.3047ZM4.72266 12.5654L2.48811 2.1532L0.532633 2.57287L2.76719 12.9851L4.72266 12.5654ZM1.73644 2.72535L9.3467 7.79122L10.4549 6.12635L2.84468 1.06048L1.73644 2.72535ZM2.48811 2.1532C2.54801 2.43232 2.38697 2.65182 2.24509 2.73732C2.1083 2.81975 1.90646 2.83853 1.73644 2.72535L2.84468 1.06048C2.30616 0.702002 1.66983 0.748925 1.21286 1.02428C0.750801 1.30271 0.38392 1.87992 0.532633 2.57287L2.48811 2.1532ZM27.2328 12.9851L29.4674 2.57287L27.5119 2.1532L25.2773 12.5654L27.2328 12.9851ZM27.1553 1.06048L19.5451 6.12635L20.6533 7.79122L28.2636 2.72535L27.1553 1.06048ZM29.4674 2.57287C29.6161 1.87992 29.2492 1.30271 28.7871 1.02428C28.3302 0.748925 27.6938 0.702002 27.1553 1.06048L28.2636 2.72535C28.0935 2.83853 27.8917 2.81975 27.7549 2.73732C27.613 2.65182 27.452 2.43232 27.5119 2.1532L29.4674 2.57287ZM3.51148 18.6663C3.51153 17.5666 3.75496 15.0196 4.61287 13.374L2.83942 12.4494C1.75634 14.5269 1.51153 17.4651 1.51148 18.6662L3.51148 18.6663ZM27.4885 18.6663C28.4885 18.6662 28.4885 18.666 28.4885 18.6658C28.4885 18.6658 28.4885 18.6656 28.4885 18.6654C28.4885 18.665 28.4885 18.6647 28.4885 18.6642C28.4885 18.6633 28.4885 18.6622 28.4885 18.6609C28.4885 18.6583 28.4885 18.6549 28.4885 18.6507C28.4884 18.6422 28.4883 18.6305 28.4882 18.6156C28.4878 18.5859 28.4871 18.5438 28.4858 18.4903C28.4833 18.3833 28.4782 18.2307 28.4681 18.0414C28.448 17.6634 28.408 17.1356 28.328 16.5305C28.1707 15.3415 27.848 13.7666 27.1604 12.4491L25.3874 13.3744C25.9143 14.384 26.1989 15.6864 26.3453 16.7928C26.4171 17.3356 26.453 17.81 26.4709 18.1474C26.4799 18.3158 26.4843 18.4491 26.4864 18.5386C26.4875 18.5834 26.488 18.6171 26.4883 18.6388C26.4884 18.6496 26.4885 18.6574 26.4885 18.6621C26.4885 18.6644 26.4885 18.6659 26.4885 18.6666C26.4885 18.667 26.4885 18.6671 26.4885 18.6671C26.4885 18.6671 26.4885 18.667 26.4885 18.6669C26.4885 18.6668 26.4885 18.6667 26.4885 18.6666C26.4885 18.6665 26.4885 18.6663 27.4885 18.6663ZM20.349 6.08225C19.8127 5.80283 17.8067 4.86407 15 4.86407V6.86407C17.3726 6.86407 19.054 7.66274 19.425 7.85599L20.349 6.08225ZM15 4.86407C12.1933 4.86407 10.1873 5.80283 9.65097 6.08225L10.575 7.85599C10.946 7.66274 12.6274 6.86407 15 6.86407V4.86407ZM19.5451 6.12635C19.794 5.96063 20.1031 5.95413 20.349 6.08225L19.425 7.85599C19.8063 8.05462 20.2773 8.0415 20.6533 7.79122L19.5451 6.12635ZM25.2773 12.5654C25.2175 12.8443 25.2597 13.1298 25.3874 13.3744L27.1604 12.4491C27.2442 12.6096 27.2728 12.799 27.2328 12.9851L25.2773 12.5654ZM9.3467 7.79122C9.72269 8.0415 10.1937 8.05462 10.575 7.85599L9.65097 6.08225C9.89691 5.95413 10.206 5.96063 10.4549 6.12635L9.3467 7.79122ZM2.76719 12.9851C2.72729 12.7992 2.75575 12.6099 2.83942 12.4494L4.61287 13.374C4.74038 13.1294 4.78245 12.844 4.72266 12.5654L2.76719 12.9851Z" fill="#223242"/>
</svg>
